<?xml version="1.0" encoding="UTF-8" standalone="no"?>
<!-- Created with Inkscape (http://www.inkscape.org/) -->

<svg
   xmlns:dc="http://purl.org/dc/elements/1.1/"
   xmlns:cc="http://creativecommons.org/ns#"
   xmlns:rdf="http://www.w3.org/1999/02/22-rdf-syntax-ns#"
   xmlns:svg="http://www.w3.org/2000/svg"
   xmlns="http://www.w3.org/2000/svg"
   xmlns:sodipodi="http://sodipodi.sourceforge.net/DTD/sodipodi-0.dtd"
   xmlns:inkscape="http://www.inkscape.org/namespaces/inkscape"
   width="512"
   height="512"
   id="svg2"
   version="1.1"
   inkscape:version="0.92.4 (5da689c313, 2019-01-14)"
   sodipodi:docname="logoApp.svg">
  <defs
     id="defs4" />
  <sodipodi:namedview
     id="base"
     pagecolor="#ffffff"
     bordercolor="#666666"
     borderopacity="1.0"
     inkscape:pageopacity="0.0"
     inkscape:pageshadow="2"
     inkscape:zoom="0.79148709"
     inkscape:cx="189.95393"
     inkscape:cy="104.98362"
     inkscape:document-units="px"
     inkscape:current-layer="layer1"
     showgrid="false"
     inkscape:window-width="1280"
     inkscape:window-height="962"
     inkscape:window-x="-8"
     inkscape:window-y="-8"
     inkscape:window-maximized="1"
     inkscape:showpageshadow="false"
     inkscape:pagecheckerboard="true" />
  <metadata
     id="metadata7">
    <rdf:RDF>
      <cc:Work
         rdf:about="">
        <dc:format>image/svg+xml</dc:format>
        <dc:type
           rdf:resource="http://purl.org/dc/dcmitype/StillImage" />
        <dc:title />
      </cc:Work>
    </rdf:RDF>
  </metadata>
  <g
     inkscape:label="Capa 1"
     inkscape:groupmode="layer"
     id="layer1"
     transform="translate(0,-540.36218)">
    <g
       id="g8720">
      <g
         id="g8706">
        <path
           inkscape:connector-curvature="0"
           id="path8702"
           d="M 512,796.36215 A 256,256 0 0 1 256,1052.3622 256,256 0 0 1 1.9936e-6,796.36215 256,256 0 0 1 256,540.36216 256,256 0 0 1 512,796.36215 Z"
           style="fill:#22ba18;fill-opacity:1;stroke-width:0.56947124" />
        <path
           inkscape:connector-curvature="0"
           id="path8704"
           d="m 280.64532,1047.5379 c 38.80069,-4.0807 74.82826,-16.8109 107.30416,-37.9152 53.98908,-35.08464 92.43507,-91.42255 105.11128,-154.02776 4.74456,-23.43315 6.14323,-50.69681 3.77525,-73.59801 -3.90378,-37.75763 -16.87868,-74.62772 -37.52321,-106.6282 -34.30005,-53.16749 -88.74664,-91.2115 -150.06924,-104.85973 -18.78245,-4.1803 -33.36788,-5.73905 -53.55752,-5.72386 -16.22013,0.0129 -26.17354,0.83256 -41.39379,3.41123 -51.0761,8.65407 -100.66799,35.6174 -135.662466,73.76024 -16.893297,18.41313 -28.467393,35.22569 -39.4604,57.32028 -10.830778,21.76852 -17.76068,42.95149 -21.713146,66.37185 -2.278834,13.50296 -2.94347,20.53179 -3.333512,35.25048 -1.054497,39.788 7.296531,77.53402 25.046658,113.20959 13.38547,26.90293 30.573176,50.06555 51.501789,69.40482 42.195277,38.99117 93.615177,61.15317 150.601647,64.91007 9.61339,0.6337 29.09137,0.1956 39.3725,-0.8858 z"
           style="fill:#ffffff;fill-opacity:1;stroke-width:0.56947124" />
      </g>
      <g
         id="g8716"
         transform="matrix(1.2900787,0,0,1.2900787,-131.02364,743.46895)">
        <g
           id="g8712">
          <path
             inkscape:connector-curvature="0"
             d="m 179.58902,19.385739 c -9.74889,11.723989 -18.98587,37.565156 -22.66645,63.411958 -1.22203,8.581252 -1.37592,24.734903 -0.31143,32.661033 2.80099,20.8562 9.22087,38.80905 19.93457,55.74562 6.01378,9.50703 11.34098,16.19676 20.05564,25.18516 5.88172,6.06662 7.66594,7.62435 8.29247,7.23988 0.68923,-0.423 0.63419,-0.80739 -0.40235,-2.81463 -0.66034,-1.27861 -2.49433,-4.07851 -4.07568,-6.22211 -17.76956,-24.08871 -26.72851,-47.8852 -28.62384,-76.02811 -1.19008,-17.67349 1.73753,-33.383717 9.44624,-50.690839 1.72416,-3.87105 3.17829,-7.762053 3.23138,-8.646891 0.0536,-0.884915 -0.53851,-3.468648 -1.31474,-5.741665 -3.58276,-10.491204 -4.03103,-22.938847 -1.22314,-33.976429 0.3779,-1.485584 0.57924,-2.810868 0.44716,-2.945193 -0.13207,-0.13424 -1.38732,1.135706 -2.78974,2.822216 z m 24.36105,-37.292251 c -2.35749,1.74932 -6.56669,8.0684145 -8.50898,12.7742745 -4.25248,10.3035571 -6.20559,19.6961305 -6.7377,32.4003555 -0.39877,9.388714 0.34799,16.861692 2.00389,20.202526 0.67901,1.370328 0.7666,1.254025 12.51734,-16.642914 l 11.83365,-18.022977 -1.5488,-1.222569 c -2.18086,-1.7214995 -4.81663,-6.0465921 -5.94332,-9.7529162 -0.6388,-2.10113534 -1.08817,-6.0333139 -1.34916,-11.8038609 -0.21514,-4.7590199 -0.47699,-8.7400249 -0.58196,-8.8467619 -0.10472,-0.106567 -0.86306,0.305159 -1.68504,0.914843 z m -27.39976,-0.882024 c -17.11389,19.10253967 -31.25544,45.976054 -38.07239,72.34977 -3.32603,12.867819 -4.11879,18.402776 -4.70178,32.823508 -0.56935,14.066988 -0.2897,18.574658 1.85214,29.930108 2.17276,11.52042 7.62393,25.84922 13.06581,34.34384 l 2.27084,3.54466 -0.22562,-2.39656 c -0.12338,-1.31813 -1.00024,-5.30364 -1.9474,-8.8565 -7.84402,-29.42468 -7.95828,-52.155197 -0.39604,-78.813965 4.37416,-15.419857 11.60828,-31.064127 21.99946,-47.574329 2.26036,-3.591548 3.85781,-6.7813377 4.43065,-8.8477309 1.04464,-3.7671266 5.21226,-28.0192741 5.02199,-29.2231071 -0.0868,-0.547905 -1.17193,0.347226 -3.29809,2.720306 z m 40.90218,-37.471534 c -19.22208,9.556176 -33.45948,31.819872 -35.59816,55.66598957 -0.56407,6.28812773 -0.20816,7.14449413 1.27332,3.06383623 1.77562,-4.891182 4.6867,-9.4574924 15.75119,-24.7076388 7.95036,-10.957951 13.63542,-19.402715 17.49169,-25.982887 3.14234,-5.361626 5.62517,-9.838337 5.51746,-9.947881 -0.10761,-0.109552 -2.10366,0.749303 -4.4355,1.908581 z m -29.63269,-9.719701 c -5.4112,3.399963 -14.30293,11.382072 -19.83274,17.803479 -20.75392,24.100126 -37.75687,60.187582 -42.03423,89.214275 -0.95926,6.510044 -1.12013,17.970856 -0.31612,22.542151 l 0.52922,3.009785 1.90947,-4.953752 c 1.05009,-2.724492 2.76691,-8.540316 3.81504,-12.924203 7.48641,-31.312267 22.20779,-57.6443106 45.37347,-81.159612 6.06313,-6.154694 7.15224,-8.196631 7.94713,-14.901478 0.68582,-5.783491 2.44363,-11.244127 5.64126,-17.5251 1.04335,-2.049177 1.72637,-3.725788 1.51795,-3.726269 -0.20841,2.4e-4 -2.25609,1.17906 -4.55045,2.620724 z m 54.6626,-5.712628 c -17.44858,20.796281 -29.01076,42.968044 -29.57985,56.722227 -0.25094,6.0634052 0.67986,9.3332211 3.41942,12.0124219 2.77602,2.71475676 5.26806,3.16333403 11.24214,2.02368267 3.86514,-0.73748207 18.61617,-5.20381407 22.79256,-6.90118337 1.48055,-0.6019555 1.81379,-0.5943126 2.45208,0.054725 0.65293,0.66413 0.25204,1.33743 -3.45206,5.797088 -2.30475,2.77507868 -7.5971,8.6836482 -11.76046,13.1299508 -20.85428,22.271578 -32.13409,36.966177 -41.50952,54.076242 -5.20791,9.504303 -8.1529,16.322957 -10.57455,24.483234 -2.64396,8.909014 -3.12487,12.007351 -3.57808,23.054181 -0.37934,9.16471 -0.30112,11.42333 0.5454,16.44369 2.79921,16.59924 8.82135,29.769 22.45507,49.10649 5.41512,7.68057 8.74372,11.32118 9.78979,10.7074 0.8254,-0.48388 -1.18854,-6.95765 -4.82387,-15.50681 -14.45869,-34.0008 -11.06824,-72.70633 9.25094,-105.60938 7.45115,-12.065752 13.40128,-19.055007 28.27705,-33.215693 15.01023,-14.288578 21.22895,-21.895075 27.28184,-33.3701263 5.40601,-10.2491031 5.90771,-17.8691877 1.52188,-23.1183717 -3.78581,-4.530917 -10.489,-6.250238 -19.38908,-4.972898 -2.89634,0.415758 -6.21726,0.753574 -7.37999,0.750117 -4.78068,-0.01527 -8.12546,-1.92813 -10.07106,-5.766686 -1.59174,-3.14032 -1.1076,-11.702433 1.0903,-19.28673 1.41119,-4.8693 6.66323,-21.231425 7.83218,-24.400138 0.34193,-0.926665 0.22349,-1.137714 -0.63931,-1.139001 -0.72484,0 -2.36277,1.55234 -5.19282,4.925436 z m -8.57348,-13.994844 c -18.02764,2.230795 -35.50715,17.476841 -41.00766,35.768863 -0.72187,2.400745 -0.83417,3.425621 -0.43029,3.924947 0.43105,0.533184 1.11765,-0.07077 3.25114,-2.860585 6.88417,-9.001435 18.2485,-16.892736 30.61903,-21.261501 5.98439,-2.113444 8.77823,-3.77687 15.58623,-9.278526 6.4566,-5.217814 6.61372,-5.970256 1.35989,-6.515347 -3.70163,-0.383984 -4.66378,-0.361141 -9.37834,0.222149 z m 10.38565,-23.269817 c -9.42179,1.16096 -21.59712,7.74805 -28.09769,15.200039 -3.05073,3.49736 -6.47501,8.991133 -5.60514,8.992342 0.3134,1.63e-4 1.45405,-0.425811 2.53455,-0.947089 3.78777,-1.827672 14.13261,-5.531585 18.54656,-6.640424 2.81395,-0.707081 6.85179,-1.229972 10.95543,-1.418991 l 6.49886,-0.299284 1.40864,-6.575033 c 1.98361,-9.25978 2.01266,-8.86397 -0.64306,-8.79062 -1.21428,0.0338 -3.73357,0.24918 -5.59815,0.47906 z m -4.92689,-7.3615 c -14.31503,2.48914 -36.99717,13.59879 -53.71672,26.310728 -20.69487,15.734032 -42.34047,44.844216 -51.97263,69.896098 -1.2948,3.366988 -2.28541,6.350062 -2.20174,6.628758 0.0844,0.278944 1.25049,-1.268822 2.59275,-3.439123 5.43038,-8.78065 13.70333,-19.277645 28.99823,-36.79446 14.49184,-16.596824 18.19866,-19.795946 27.51284,-23.744697 10.94817,-4.641353 11.23694,-4.832217 15.03426,-9.942169 8.53854,-11.489694 21.43991,-20.637675 37.14261,-26.336225 7.49646,-2.72064 6.99145,-2.44379 5.22673,-2.86589 -2.27637,-0.54461 -4.20272,-0.48043 -8.61633,0.28698 z"
             style="fill:#dedede;fill-opacity:1;stroke-width:0.5123679"
             id="path8708" />
          <path
             id="path8710"
             style="fill:#dedede;fill-opacity:1;stroke-width:0.5123679"
             d="m 420.411,19.385739 c 9.7489,11.723989 18.98588,37.565156 22.66646,63.411958 1.22203,8.581252 1.37591,24.734903 0.31143,32.661033 -2.80099,20.8562 -9.22088,38.80905 -19.93457,55.74562 -6.01378,9.50703 -11.34098,16.19676 -20.05565,25.18516 -5.88172,6.06662 -7.66594,7.62435 -8.29246,7.23988 -0.68924,-0.423 -0.6342,-0.80739 0.40235,-2.81463 0.66034,-1.27861 2.49433,-4.07851 4.07568,-6.22211 17.76955,-24.08871 26.72851,-47.8852 28.62383,-76.02811 1.19008,-17.67349 -1.73753,-33.383717 -9.44624,-50.690839 -1.72415,-3.87105 -3.17829,-7.762053 -3.23137,-8.646891 -0.0537,-0.884915 0.5385,-3.468648 1.31473,-5.741665 3.58277,-10.491204 4.03103,-22.938847 1.22314,-33.976429 -0.37789,-1.485584 -0.57923,-2.810868 -0.44716,-2.945193 0.13207,-0.13424 1.38733,1.135706 2.78974,2.822216 z m -24.36104,-37.292251 c 2.35749,1.74932 6.56669,8.0684145 8.50897,12.7742745 4.25249,10.3035571 6.20559,19.6961305 6.7377,32.4003555 0.39877,9.388714 -0.34798,16.861692 -2.00388,20.202526 -0.67902,1.370328 -0.76661,1.254025 -12.51735,-16.642914 l -11.83364,-18.022977 1.5488,-1.222569 c 2.18086,-1.7214995 4.81663,-6.0465921 5.94332,-9.7529162 0.63879,-2.10113534 1.08817,-6.0333139 1.34915,-11.8038609 0.21515,-4.7590199 0.47699,-8.7400249 0.58197,-8.8467619 0.10472,-0.106567 0.86305,0.305159 1.68504,0.914843 z m 27.39976,-0.882024 c 17.11389,19.10253967 31.25544,45.976054 38.07239,72.34977 3.32603,12.867819 4.11879,18.402776 4.70177,32.823508 0.56936,14.066988 0.28971,18.574658 -1.85213,29.930108 -2.17277,11.52042 -7.62393,25.84922 -13.06582,34.34384 l -2.27084,3.54466 0.22563,-2.39656 c 0.12338,-1.31813 1.00024,-5.30364 1.9474,-8.8565 7.84402,-29.42468 7.95828,-52.155197 0.39604,-78.813965 C 447.23,48.716468 439.99588,33.072198 429.60469,16.561996 c -2.26036,-3.591548 -3.8578,-6.7813377 -4.43065,-8.8477309 -1.04463,-3.7671266 -5.21225,-28.0192741 -5.02198,-29.2231071 0.0868,-0.547905 1.17193,0.347226 3.29809,2.720306 z M 382.54754,-56.26007 c 19.22207,9.556176 33.45948,31.819872 35.59816,55.66598957 0.56407,6.28812773 0.20816,7.14449413 -1.27332,3.06383623 -1.77562,-4.891182 -4.6867,-9.4574924 -15.75119,-24.7076388 -7.95036,-10.957951 -13.63542,-19.402715 -17.4917,-25.982887 -3.14233,-5.361626 -5.62516,-9.838337 -5.51746,-9.947881 0.10762,-0.109552 2.10366,0.749303 4.43551,1.908581 z m 29.63268,-9.719701 c 5.41121,3.399963 14.30293,11.382072 19.83275,17.803479 20.75391,24.100126 37.75687,60.187582 42.03423,89.214275 0.95926,6.510044 1.12013,17.970856 0.31612,22.542151 l -0.52922,3.009785 -1.90948,-4.953752 c -1.05008,-2.724492 -2.76691,-8.540316 -3.81503,-12.924203 -7.48641,-31.312267 -22.20779,-57.6443106 -45.37348,-81.159612 -6.06312,-6.154694 -7.15223,-8.196631 -7.94712,-14.901478 -0.68582,-5.783491 -2.44363,-11.244127 -5.64127,-17.5251 -1.04335,-2.049177 -1.72636,-3.725788 -1.51795,-3.726269 0.20842,2.4e-4 2.2561,1.17906 4.55045,2.620724 z m -54.66259,-5.712628 c 17.44858,20.796281 29.01075,42.968044 29.57985,56.722227 0.25093,6.0634052 -0.67986,9.3332211 -3.41942,12.0124219 -2.77603,2.71475676 -5.26806,3.16333403 -11.24214,2.02368267 -3.86514,-0.73748207 -18.61617,-5.20381407 -22.79256,-6.90118337 -1.48056,-0.6019555 -1.8138,-0.5943126 -2.45208,0.054725 -0.65294,0.66413 -0.25204,1.33743 3.45205,5.797088 2.30475,2.77507868 7.59711,8.6836482 11.76046,13.1299508 20.85429,22.271578 32.13409,36.966177 41.50953,54.076242 5.20791,9.504303 8.1529,16.322957 10.57455,24.483234 2.64396,8.909014 3.12486,12.007351 3.57808,23.054181 0.37934,9.16471 0.30112,11.42333 -0.54541,16.44369 -2.7992,16.59924 -8.82134,29.769 -22.45506,49.10649 -5.41512,7.68057 -8.74372,11.32118 -9.7898,10.7074 -0.82539,-0.48388 1.18854,-6.95765 4.82388,-15.50681 14.45869,-34.0008 11.06824,-72.70633 -9.25095,-105.60938 C 373.39747,55.835808 367.44733,48.846553 352.57156,34.685867 337.56133,20.397289 331.34262,12.790792 325.28973,1.315741 c -5.40601,-10.2491031 -5.90771,-17.869188 -1.52188,-23.118372 3.78581,-4.530917 10.489,-6.250238 19.38907,-4.972898 2.89635,0.415758 6.21727,0.753574 7.37999,0.750117 4.78068,-0.01527 8.12546,-1.92813 10.07107,-5.766686 1.59174,-3.14032 1.1076,-11.702433 -1.0903,-19.28673 -1.41119,-4.8693 -6.66323,-21.231425 -7.83219,-24.400138 -0.34193,-0.926665 -0.22349,-1.137714 0.63931,-1.139001 0.72485,0 2.36278,1.55234 5.19283,4.925436 z m 8.57347,-13.994844 c 18.02765,2.230795 35.50716,17.476841 41.00766,35.768863 0.72187,2.400745 0.83418,3.425621 0.43029,3.924947 -0.43105,0.533184 -1.11765,-0.07077 -3.25113,-2.860585 -6.88417,-9.001435 -18.2485,-16.892736 -30.61904,-21.261501 -5.98438,-2.113444 -8.77822,-3.77687 -15.58622,-9.278526 -6.4566,-5.217814 -6.61372,-5.970256 -1.3599,-6.515347 3.70163,-0.383984 4.66378,-0.361141 9.37834,0.222149 z m -10.38565,-23.269817 c 9.4218,1.16096 21.59712,7.74805 28.0977,15.200039 3.05073,3.49736 6.475,8.991133 5.60513,8.992342 -0.31339,1.63e-4 -1.45405,-0.425811 -2.53455,-0.947089 -3.78777,-1.827672 -14.13261,-5.531585 -18.54655,-6.640424 -2.81395,-0.707081 -6.8518,-1.229972 -10.95543,-1.418991 l -6.49886,-0.299284 -1.40864,-6.575033 c -1.98361,-9.25978 -2.01266,-8.86397 0.64305,-8.79062 1.21428,0.0338 3.73358,0.24918 5.59815,0.47906 z m 4.9269,-7.3615 c 14.31503,2.48914 36.99716,13.59879 53.71672,26.310728 20.69486,15.734032 42.34046,44.844216 51.97263,69.896098 1.2948,3.366988 2.28541,6.350062 2.20173,6.628758 -0.0844,0.278944 -1.25049,-1.268822 -2.59274,-3.439123 -5.43038,-8.78065 -13.70333,-19.277645 -28.99824,-36.79446 -14.49183,-16.596824 -18.19865,-19.795946 -27.51283,-23.744697 -10.94818,-4.641353 -11.23695,-4.832217 -15.03426,-9.942169 -8.53854,-11.489694 -21.43991,-20.637675 -37.14261,-26.336225 -7.49647,-2.72064 -6.99145,-2.44379 -5.22673,-2.86589 2.27637,-0.54461 4.20272,-0.48043 8.61633,0.28698 z"
             inkscape:connector-curvature="0" />
        </g>
        <path
           id="path8714"
           style="font-style:normal;font-variant:normal;font-weight:bold;font-stretch:normal;font-size:347.4559021px;line-height:6.25;font-family:Narkisim;-inkscape-font-specification:'Narkisim Bold';letter-spacing:0px;word-spacing:0px;fill:#227af3;fill-opacity:1;stroke:#ffffff;stroke-width:2.54607105;stroke-miterlimit:4;stroke-dasharray:none;stroke-opacity:1"
           d="m 386.25504,204.76428 h -40.2138 q -1.29726,-25.1974 -6.2504,-50.17004 -1.65085,-8.54919 -11.20303,-48.59517 h -59.67219 q -7.42957,37.34625 -9.19851,48.3701 -4.59911,27.67231 -4.95299,50.39511 h -40.92146 q 12.26463,-26.9975 31.84096,-105.064622 L 300.04893,-116.7288 355.82937,106.899 q 14.03348,56.91936 30.42567,97.86528 z M 319.27122,66.402962 298.75168,-27.862641 277.76022,66.402962 Z"
           inkscape:connector-curvature="0" />
      </g>
      <path
         inkscape:connector-curvature="0"
         d="m 285.50135,927.55195 c -0.56601,-0.40146 -0.59035,-1.13791 -0.0526,-1.59342 0.49345,-0.41796 1.11454,-0.40972 1.56307,0.0208 0.47401,0.45492 0.45551,1.0638 -0.046,1.516 -0.4928,0.44433 -0.89573,0.45993 -1.46437,0.0565 z m -2.5876,0.15795 c -1.14764,-0.41691 -0.75388,-2.07342 0.49288,-2.07342 1.05234,0 1.50996,1.31676 0.66568,1.91557 -0.47177,0.33455 -0.6175,0.35443 -1.15856,0.15785 z m -3.1215,-0.0233 c -0.49489,-0.22023 -0.79038,-0.89692 -0.56066,-1.2839 0.48471,-0.81663 1.14959,-0.97863 1.88259,-0.45881 1.07138,0.7599 -0.09,2.29092 -1.32193,1.74271 z m -3.26491,-0.19087 c -0.54894,-0.49493 -0.53644,-1.15039 0.0295,-1.55184 0.60981,-0.43246 1.10714,-0.3864 1.60664,0.14882 0.54424,0.58316 0.53525,0.80148 -0.0549,1.33366 -0.58626,0.52858 -1.04951,0.54891 -1.58134,0.0693 z m -2.91669,0.0649 c -0.57792,-0.40991 -0.60735,-1.14191 -0.0645,-1.60182 0.47718,-0.40419 0.93222,-0.4088 1.48739,-0.0149 0.5119,0.36306 0.57492,0.99066 0.14541,1.4483 -0.44351,0.4726 -1.04803,0.53763 -1.56834,0.16858 z m 14.75642,2.57552 c -0.56097,-0.64306 -0.42614,-1.26365 0.35354,-1.62717 0.60967,-0.28427 1.30601,-0.0739 1.58531,0.47871 0.27773,0.54956 0.22991,0.77517 -0.24918,1.17547 -0.58053,0.48514 -1.25223,0.47435 -1.68967,-0.0272 z m -2.94141,0.0474 c -0.73611,-0.70651 -0.25768,-1.78097 0.79305,-1.78097 1.06872,0 1.5547,1.13707 0.77004,1.8017 -0.49345,0.41803 -1.11455,0.40977 -1.56309,-0.0208 z m -2.88048,-0.0473 c -0.41916,-0.48046 -0.42782,-0.90641 -0.0281,-1.37536 0.20951,-0.24575 0.46912,-0.35814 0.82717,-0.35814 1.09975,0 1.60435,1.14722 0.80132,1.82177 -0.5075,0.42634 -1.18412,0.38899 -1.60049,-0.0883 z m -2.76809,0.29121 c -0.1149,-0.0416 -0.32128,-0.27173 -0.45863,-0.51117 -0.2099,-0.36599 -0.21566,-0.49957 -0.0362,-0.8373 0.42561,-0.80071 1.27523,-0.90529 2.00553,-0.24678 0.8284,0.74692 -0.36775,2.00996 -1.51078,1.59525 z m -3.29582,-0.24373 c -0.45742,-0.43908 -0.45644,-1.04406 0.002,-1.42947 0.58058,-0.48767 1.20025,-0.45338 1.74768,0.0967 0.96882,0.9737 -0.75574,2.28696 -1.75002,1.33269 z m -2.95813,0 c -0.74624,-0.71627 -0.25556,-1.78098 0.8208,-1.78098 1.01528,0 1.49494,1.16416 0.74229,1.80169 -0.49345,0.41804 -1.11455,0.40978 -1.56309,-0.0207 z m -3.1392,-0.0475 c -0.46581,-0.53391 -0.4279,-0.88732 0.15122,-1.40947 0.54733,-0.49351 0.94678,-0.4774 1.60352,0.0643 0.48207,0.39782 0.46932,0.91816 -0.0335,1.37157 -0.54894,0.49494 -1.27587,0.4837 -1.72112,-0.0266 z m -2.94141,0.0475 c -0.72076,-0.69176 -0.23574,-1.78098 0.79306,-1.78098 0.36806,0 0.64236,0.10924 0.84729,0.33747 0.94956,1.05731 -0.61146,2.43098 -1.64035,1.44351 z m 20.91902,2.68588 c -0.71115,-0.68826 -0.11053,-1.75025 0.98988,-1.75025 0.97539,0 1.47762,1.36399 0.69567,1.88933 -0.44301,0.29759 -1.3081,0.2262 -1.68555,-0.13908 z m -2.96453,0.0278 c -0.70856,-0.63889 -0.18619,-1.77818 0.81529,-1.77818 0.95396,0 1.47405,1.00748 0.90095,1.74518 -0.33445,0.43057 -1.25569,0.44824 -1.71624,0.0331 z m -8.94439,0 c -0.70294,-0.63382 -0.1266,-1.77818 0.89563,-1.77818 0.43844,0 1.24078,0.57362 1.24078,0.88705 0,0.26427 -0.35485,0.9624 -0.54435,1.07107 -0.38068,0.21821 -1.26075,0.1188 -1.59206,-0.17994 z m -2.92157,0.0657 c -0.75082,-0.47413 -0.24034,-1.84385 0.6872,-1.84385 0.57848,0 1.24834,0.54472 1.24834,1.01508 0,0.93436 -1.05387,1.38557 -1.93554,0.82877 z m -3.14712,-0.15973 c -0.4297,-0.49252 -0.4297,-0.80109 0,-1.29369 0.24704,-0.28318 0.49207,-0.39043 0.89194,-0.39043 0.59059,0 1.23256,0.54029 1.23256,1.03731 0,0.49695 -0.64197,1.03723 -1.23256,1.03723 -0.39987,0 -0.6449,-0.10729 -0.89194,-0.39042 z m -2.97006,0.0942 c -0.69464,-0.62636 -0.1289,-1.77819 0.87339,-1.77819 0.96063,0 1.46092,1.1552 0.77001,1.77819 -0.18259,0.16459 -0.54779,0.29635 -0.82169,0.29635 -0.27391,0 -0.6391,-0.13176 -0.82171,-0.29635 z m -3.04777,-0.0675 c -0.51186,-0.46156 -0.51186,-0.88555 0,-1.34709 0.76812,-0.69257 2.06172,-0.26999 2.06172,0.67357 0,0.94348 -1.2936,1.36612 -2.06172,0.67352 z m -18.15221,0.0675 c -0.69822,-0.62956 -0.16327,-1.77819 0.82811,-1.77819 0.96479,0 1.47107,0.99482 0.88814,1.74519 -0.33444,0.43054 -1.2557,0.44821 -1.71625,0.0331 z m -6.08062,0 c -0.72235,-0.65131 -0.1616,-1.77819 0.88481,-1.77819 1.00651,0 1.52616,1.0953 0.8427,1.77623 -0.395,0.39353 -1.29209,0.39449 -1.72751,0 z m -2.92157,0.0656 c -0.48721,-0.30773 -0.50722,-1.22388 -0.0346,-1.58863 0.75384,-0.58199 1.97021,-0.0819 1.97021,0.81 0,0.84943 -1.11388,1.29753 -1.93551,0.77863 z m -3.02918,0.0738 c -0.15454,-0.0812 -0.33163,-0.39105 -0.39352,-0.68853 -0.0977,-0.46954 -0.054,-0.58626 0.33124,-0.88508 0.6097,-0.47286 1.29633,-0.44882 1.74109,0.061 0.40576,0.46513 0.34826,1.13968 -0.12469,1.46345 -0.33904,0.23211 -1.15692,0.25797 -1.55409,0.0493 z m -3.08801,-0.13961 c -0.69575,-0.62731 -0.16394,-1.77817 0.82171,-1.77817 0.23709,0 0.5929,0.13595 0.79072,0.30214 0.74735,0.62777 0.23671,1.77239 -0.79072,1.77239 -0.27391,0 -0.6391,-0.13175 -0.82171,-0.29636 z m 51.83309,0.22828 c -0.81793,-0.31356 -0.98594,-1.13934 -0.34267,-1.68425 0.81461,-0.69 1.98233,-0.19105 1.88999,0.80767 -0.0409,0.44121 -0.15615,0.61394 -0.54478,0.81579 -0.42759,0.22216 -0.56066,0.23022 -1.00254,0.061 z m -2.94735,0.0651 c -1.25438,-0.42063 -0.93073,-2.07161 0.40611,-2.07161 0.5518,0 1.16084,0.55509 1.16084,1.05803 0,0.62368 -0.93198,1.22652 -1.56695,1.01358 z m -36.32022,0 c -0.43297,-0.14447 -0.67996,-0.42109 -0.81767,-0.91576 -0.0867,-0.31189 -0.0194,-0.48188 0.30801,-0.77713 1.01488,-0.91505 2.5911,0.10987 1.9166,1.24622 -0.20558,0.34642 -0.97509,0.59067 -1.40694,0.44667 z m 44.76982,2.4554 c -0.5141,-0.4635 -0.5141,-1.03172 0,-1.49522 0.46493,-0.41925 0.9231,-0.4607 1.47668,-0.13368 0.75265,0.44473 0.64982,1.48708 -0.18035,1.82813 -0.59281,0.24355 -0.84896,0.20418 -1.29633,-0.19923 z m -2.92851,0.0566 c -0.59883,-0.42471 -0.59883,-1.18379 0,-1.60845 0.23815,-0.16895 0.56099,-0.30713 0.71736,-0.30713 0.5512,0 1.15039,0.57888 1.15039,1.11136 0,0.53249 -0.5992,1.11129 -1.15039,1.11129 -0.15637,0 -0.47921,-0.13818 -0.71736,-0.30707 z m -2.87503,-0.0401 c -0.56743,-0.51157 -0.56273,-1.1613 0.0103,-1.56836 0.23815,-0.16895 0.59397,-0.30713 0.7907,-0.30713 0.55117,0 1.07786,0.53073 1.07184,1.08005 -0.007,0.61609 -0.31646,0.97097 -0.94656,1.08459 -0.40387,0.0728 -0.59031,0.0149 -0.92726,-0.28915 z m -2.82704,0.17391 c -0.52485,-0.22918 -0.74012,-0.76044 -0.52918,-1.30598 0.30832,-0.79761 1.15846,-0.97741 1.85778,-0.39302 0.53606,0.44791 0.54225,1.03398 0.0159,1.50852 -0.42993,0.3877 -0.77935,0.43721 -1.34452,0.19048 z m -3.01525,-0.0175 c -0.57795,-0.26368 -0.79906,-0.90635 -0.48522,-1.41052 0.50633,-0.81336 1.68631,-0.76555 2.11653,0.0859 0.24869,0.49207 -0.0224,1.11679 -0.58466,1.34787 -0.50444,0.20723 -0.54351,0.20632 -1.04665,-0.0233 z m -3.10043,-0.0475 c -0.77005,-0.4863 -0.72966,-1.48606 0.0732,-1.816 0.57356,-0.2356 0.78084,-0.21312 1.27666,0.13857 0.59882,0.42466 0.59882,1.18371 0,1.60844 -0.52052,0.36918 -0.84816,0.38592 -1.34998,0.069 z m -2.81857,0.13446 c -0.37337,-0.12161 -0.81394,-0.67255 -0.81804,-1.02315 -0.006,-0.43191 0.7202,-1.09589 1.19704,-1.09589 0.5325,0 1.26441,0.63571 1.26441,1.09824 0,0.21464 -0.1902,0.53061 -0.45025,0.74797 -0.4434,0.37073 -0.70711,0.43109 -1.19316,0.27283 z m -12.38557,-0.20345 c -0.59885,-0.42473 -0.59885,-1.18378 0,-1.60844 0.56865,-0.40335 0.97157,-0.38775 1.46438,0.0566 0.51409,0.46348 0.51409,1.03171 0,1.49519 -0.49281,0.44441 -0.89573,0.45994 -1.46438,0.0565 z m -3.12066,-0.0565 c -0.56272,-0.47024 -0.56272,-1.02572 0,-1.49598 0.51205,-0.42784 1.04002,-0.46415 1.51204,-0.10404 0.5666,0.43226 0.60336,0.96031 0.1041,1.49535 -0.52786,0.56562 -1.02582,0.59789 -1.61611,0.10455 z m -2.95995,0.0565 c -0.59885,-0.42473 -0.59885,-1.18378 0,-1.60844 0.23815,-0.16897 0.56098,-0.30715 0.71737,-0.30715 0.5512,0 1.15039,0.57888 1.15039,1.11138 0,0.53249 -0.59919,1.11128 -1.15039,1.11128 -0.15639,0 -0.47922,-0.13817 -0.71737,-0.30707 z m -3.13519,-0.0682 c -0.46698,-0.45435 -0.51102,-0.67613 -0.22912,-1.15334 0.45892,-0.77693 1.25132,-0.90484 1.87093,-0.30201 0.22165,0.21561 0.40134,0.53237 0.39935,0.70378 -0.006,0.47175 -0.50894,0.96157 -1.09622,1.06662 -0.43539,0.0779 -0.59617,0.0239 -0.94494,-0.31505 z m -2.94541,0.0682 c -0.30706,-0.21775 -0.43228,-0.44415 -0.43053,-0.77798 0.002,-0.56002 0.11597,-0.73608 0.62908,-0.97987 1.22703,-0.58296 2.32841,0.98319 1.23616,1.75785 -0.23814,0.1689 -0.56096,0.30707 -0.71735,0.30707 -0.1564,0 -0.47924,-0.13817 -0.71736,-0.30707 z m -2.94845,0.007 c -0.56752,-0.40251 -0.67505,-0.78135 -0.37188,-1.31 0.57154,-0.99658 2.22992,-0.59375 2.22992,0.54158 0,0.37755 -0.72457,1.06867 -1.12037,1.06867 -0.17291,0 -0.50486,-0.13513 -0.73767,-0.30025 z m -3.1618,-0.0637 c -0.51412,-0.46355 -0.51412,-1.03171 0,-1.49526 0.65398,-0.58971 1.4135,-0.43804 1.89847,0.37904 0.32119,0.54113 -0.4372,1.47995 -1.19552,1.47995 -0.16478,0 -0.48109,-0.1637 -0.70295,-0.36373 z m -2.92852,0.0566 c -0.55941,-0.39678 -0.59478,-1.17541 -0.0732,-1.61344 0.45872,-0.38536 0.96006,-0.38367 1.50807,0.006 0.56604,0.40153 0.57858,1.05694 0.0298,1.55187 -0.4928,0.4444 -0.89574,0.45993 -1.46438,0.0565 z m -3.15247,-0.0851 c -0.51118,-0.49726 -0.51118,-0.94121 0,-1.43849 0.62288,-0.60601 1.40858,-0.50902 1.83013,0.22594 0.30007,0.52327 0.19083,0.90302 -0.37512,1.30443 -0.56882,0.40341 -0.97212,0.37794 -1.45501,-0.0919 z m -2.78598,0.21504 c -0.45983,-0.23509 -0.56977,-0.41959 -0.57267,-0.96078 -0.003,-0.7944 0.89415,-1.29415 1.66667,-0.92706 0.51303,0.24374 0.62609,0.41984 0.62908,0.97982 0.002,0.33383 -0.12348,0.56022 -0.43051,0.77797 -0.4853,0.34422 -0.80984,0.37683 -1.29257,0.13005 z m -3.0016,0.0266 c -0.42993,-0.15943 -0.74964,-0.79748 -0.60524,-1.20777 0.15074,-0.42829 0.74649,-0.86451 1.18058,-0.86451 0.47105,0 1.19509,0.66676 1.19007,1.09596 -0.008,0.72809 -0.98238,1.26668 -1.76541,0.97632 z m 57.06951,2.4272 c -0.40594,-0.46525 -0.43348,-0.90583 -0.0848,-1.35478 0.3597,-0.46303 1.42941,-0.46303 1.7891,0 0.36635,0.47164 0.31575,1.05011 -0.12456,1.42305 -0.52161,0.44181 -1.1588,0.41433 -1.57979,-0.0683 z m -2.84705,0.0473 c -0.74061,-0.7108 -0.23017,-1.73153 0.86591,-1.73153 0.65596,0 1.07754,0.41866 1.07754,1.07024 0,0.90678 -1.2459,1.33078 -1.94345,0.66129 z m -2.7848,0.24381 c -0.1149,-0.0416 -0.31774,-0.26556 -0.45079,-0.49753 -0.60329,-1.05193 0.88753,-1.9936 1.86123,-1.17568 0.94596,0.7946 -0.17303,2.1221 -1.41044,1.67321 z m -3.22012,-0.20794 c -0.863,-0.61206 -0.3279,-1.7674 0.8186,-1.7674 1.08256,0 1.53299,1.17598 0.69526,1.81521 -0.45137,0.34429 -0.98468,0.32746 -1.51386,-0.0482 z m -3.03149,0.006 c -0.20749,-0.17428 -0.35967,-0.48077 -0.35967,-0.72444 0,-0.99508 1.22086,-1.44448 1.96571,-0.72361 0.4441,0.42986 0.42508,1.02958 -0.0453,1.42804 -0.4772,0.40419 -1.094,0.41211 -1.56075,0.0201 z m -12.18029,-0.0884 c -0.68059,-0.78011 -0.20684,-1.68404 0.88264,-1.68404 0.67427,0 1.07753,0.42185 1.07753,1.12726 0,0.89718 -1.33288,1.27584 -1.96017,0.55678 z m -2.97005,0.0942 c -0.41967,-0.3784 -0.43478,-1.20114 -0.0283,-1.5329 0.71478,-0.58328 2.00025,-0.091 2.00025,0.76617 0,0.88503 -1.28626,1.38509 -1.9721,0.76673 z m -3.11055,-0.0942 c -0.42998,-0.49285 -0.43438,-1.00681 -0.0123,-1.38768 0.53425,-0.48169 1.23657,-0.44102 1.77868,0.10297 0.2795,0.28058 0.35467,0.48676 0.28059,0.76984 -0.23699,0.90551 -1.44213,1.20855 -2.04735,0.51483 z m -2.93908,0.0884 c -0.42193,-0.35442 -0.46665,-0.97598 -0.10375,-1.44305 0.3597,-0.46303 1.4294,-0.46303 1.78912,0 0.84399,1.08648 -0.61873,2.339 -1.68528,1.44305 z m -3.09715,-0.0781 c -0.33265,-0.29991 -0.40098,-0.47389 -0.3234,-0.82359 0.13695,-0.61738 0.47411,-0.87058 1.15922,-0.87058 1.1106,0 1.59132,0.89579 0.90367,1.68404 -0.45151,0.51753 -1.17206,0.52178 -1.73949,0.009 z m -5.9818,0.10705 c -0.46192,-0.33728 -0.49897,-1.08051 -0.0749,-1.50301 0.20047,-0.19968 0.50674,-0.29822 0.92705,-0.29822 0.52886,0 0.66716,0.0688 0.8784,0.43711 0.34716,0.60531 0.31426,0.93914 -0.12958,1.3152 -0.46532,0.39412 -1.10145,0.41354 -1.60094,0.0487 z m -3.08463,-0.0697 c -0.72155,-0.69255 -0.20782,-1.73153 0.85616,-1.73153 0.67745,0 1.14205,0.43212 1.14205,1.06224 0,0.91543 -1.29115,1.34794 -1.99821,0.66929 z m -2.95022,0.11232 c -0.46998,-0.29682 -0.50804,-1.2368 -0.0647,-1.59858 0.41353,-0.33741 1.26971,-0.31123 1.67157,0.0513 1.00147,0.90297 -0.43573,2.28709 -1.60683,1.54744 z m -3.08435,-0.13306 c -0.50631,-0.45647 -0.51486,-0.97194 -0.0229,-1.3886 0.53819,-0.45589 1.31334,-0.42557 1.74413,0.0683 0.42968,0.49255 0.42968,0.80111 0,1.29364 -0.44524,0.51039 -1.17217,0.52171 -1.72111,0.0266 z m -3.03284,0.0675 c -0.41964,-0.37841 -0.43476,-1.20114 -0.0283,-1.53291 0.4497,-0.36696 1.43077,-0.31966 1.74441,0.0841 0.81929,1.05464 -0.71602,2.35069 -1.71626,1.44884 z m -3.11053,-0.0942 c -0.42969,-0.49252 -0.42969,-0.80109 0,-1.29363 0.44522,-0.51041 1.26202,-0.5323 1.76717,-0.0475 0.46814,0.44933 0.45235,0.91847 -0.0461,1.36782 -0.54892,0.49502 -1.27585,0.4837 -1.7211,-0.0266 z m -2.94142,0.0474 c -0.7379,-0.70821 -0.27875,-1.73154 0.77689,-1.73154 0.75665,0 1.16654,0.35554 1.16654,1.01183 0,0.96169 -1.2204,1.41363 -1.94343,0.71971 z m -2.99598,0.0697 c -0.46193,-0.33727 -0.49898,-1.0805 -0.0749,-1.50301 0.39499,-0.39353 1.29207,-0.39451 1.72751,0 1.02899,0.92778 -0.51603,2.3347 -1.65261,1.50482 z m -3.08465,-0.0697 c -0.74332,-0.71342 -0.27855,-1.73154 0.79044,-1.73154 0.49576,0 0.71335,0.0885 0.98603,0.40106 0.89692,1.0281 -0.78165,2.28529 -1.77647,1.33048 z m -2.95578,0.0409 c -0.45052,-0.37841 -0.48166,-1.18236 -0.0592,-1.52711 0.4497,-0.36697 1.43079,-0.31966 1.74443,0.0841 0.83385,1.0734 -0.63155,2.32819 -1.68527,1.44304 z m -3.14154,-0.0884 c -0.18734,-0.21475 -0.34062,-0.53652 -0.34062,-0.71508 0,-0.46382 0.66331,-0.96897 1.27231,-0.96897 0.66407,0 1.25688,0.62798 1.11292,1.17898 -0.2342,0.89633 -1.44281,1.19489 -2.04461,0.50507 z m 66.62641,2.76749 c -0.6853,-0.68273 -0.13408,-1.77622 0.89534,-1.77622 0.55088,0 1.16084,0.55482 1.16084,1.05594 0,0.88406 -1.39969,1.37437 -2.05618,0.72028 z m -3.0384,0 c -1.0016,-0.90308 0.53493,-2.34528 1.6182,-1.51886 0.52415,0.39997 0.59621,0.94499 0.18693,1.41414 -0.43609,0.49987 -1.31063,0.55061 -1.80513,0.10467 z m -3.01484,0.0254 c -0.38928,-0.38789 -0.34551,-1.13752 0.0877,-1.50138 1.08007,-0.9073 2.61226,0.47422 1.60601,1.44805 -0.41971,0.4062 -1.31132,0.43427 -1.6937,0.0533 z m -5.98735,0.0403 c -0.80441,-0.50798 -0.23388,-1.8438 0.78749,-1.8438 0.9357,0 1.52651,1.2752 0.8475,1.82925 -0.37836,0.30876 -1.15817,0.31572 -1.63499,0.0143 z m -3.10006,-0.14721 c -0.32379,-0.29193 -0.39528,-0.46888 -0.31423,-0.77796 0.23206,-0.88472 1.37525,-1.20829 2.03436,-0.57569 1.09039,1.04653 -0.59224,2.37062 -1.72013,1.35365 z m -3.01071,0.0533 c -0.44793,-0.43348 -0.42279,-0.94368 0.0682,-1.38645 0.46867,-0.42264 0.92338,-0.46051 1.49231,-0.12441 0.50878,0.30058 0.56864,1.2112 0.10455,1.58992 -0.43018,0.35106 -1.26158,0.31157 -1.66516,-0.0791 z m -3.02125,0.0533 c -0.3742,-0.37288 -0.34516,-1.14481 0.0566,-1.50717 1.01849,-0.91834 2.61036,0.4765 1.6652,1.4591 -0.39017,0.40562 -1.33649,0.43206 -1.72191,0.0481 z m -6.08061,0 c -0.39487,-0.39347 -0.34328,-1.09875 0.10835,-1.48138 1.0563,-0.89477 2.5038,0.34268 1.66457,1.42304 -0.3292,0.42374 -1.37177,0.45804 -1.77297,0.0584 z m -2.83574,0.15759 c -0.2366,-0.14245 -0.55872,-0.69975 -0.55872,-0.96661 0,-0.11573 0.18134,-0.38678 0.40301,-0.60246 0.54056,-0.52586 1.26353,-0.52657 1.72149,0 0.42969,0.49254 0.42969,0.8011 0,1.29364 -0.34024,0.39003 -1.1424,0.53197 -1.56578,0.27706 z m -3.26102,-0.21593 c -0.57549,-0.74089 -0.0785,-1.74517 0.86355,-1.74517 1.04122,0 1.59012,1.11375 0.89458,1.81514 -0.3854,0.38867 -1.4343,0.3469 -1.75813,-0.07 z m -3.04699,-0.0719 c -0.58651,-0.67228 -0.0768,-1.67339 0.85201,-1.67339 0.57847,0 1.28177,0.58797 1.28177,1.07161 0,1.0043 -1.43066,1.40777 -2.13378,0.60178 z m -2.95437,0.0769 c -0.44414,-0.42984 -0.42511,-1.02956 0.0454,-1.42804 0.75483,-0.63934 1.97517,-0.213 1.97517,0.69008 0,0.97625 -1.28813,1.44677 -2.02046,0.73796 z m -6.08061,0 c -0.18432,-0.17838 -0.33511,-0.48142 -0.33511,-0.67351 0,-0.46441 0.70094,-1.07666 1.23257,-1.07666 0.49788,0 1.23257,0.60231 1.23257,1.01052 0,0.15572 -0.15328,0.45876 -0.34063,0.67353 -0.44001,0.50435 -1.30361,0.53631 -1.7894,0.066 z m -3.0374,-0.006 c -0.81929,-1.05464 0.71603,-2.35074 1.71625,-1.44883 0.46055,0.41523 0.44093,1.24589 -0.0366,1.54745 -0.5462,0.34494 -1.3728,0.2964 -1.67969,-0.0986 z m -3.03769,-0.061 c -0.44732,-0.51274 -0.43004,-0.876 0.0627,-1.3204 0.51761,-0.46667 1.23072,-0.47537 1.70441,-0.0208 0.44828,0.43023 0.4534,0.8406 0.0167,1.34112 -0.24706,0.28316 -0.49208,0.39042 -0.89196,0.39042 -0.39987,0 -0.64492,-0.1073 -0.89194,-0.39042 z m -2.97008,0.0942 c -0.69464,-0.62637 -0.12889,-1.77812 0.87339,-1.77812 0.94746,0 1.49687,1.25912 0.79817,1.82921 -0.41349,0.33743 -1.26969,0.31124 -1.67156,-0.0511 z m -2.90676,0.17992 c -0.10732,-0.0618 -0.27348,-0.29766 -0.36923,-0.5247 -0.44785,-1.0621 1.09749,-1.93888 1.95486,-1.10907 0.71734,0.69423 0.24331,1.75175 -0.78353,1.74791 -0.33382,0 -0.69477,-0.0527 -0.8021,-0.11415 z m -3.16744,-0.20787 c -0.44413,-0.42984 -0.42511,-1.02957 0.0453,-1.42804 0.75482,-0.63941 1.97518,-0.21302 1.97518,0.69009 0,0.97622 -1.28813,1.44673 -2.02045,0.73795 z m -3.00643,0.0649 c -0.46044,-0.46426 -0.43031,-1.09036 0.0728,-1.51307 0.47669,-0.4004 1.14184,-0.38326 1.58375,0.041 0.42466,0.40757 0.45551,0.866 0.0919,1.36633 -0.32826,0.45174 -1.34456,0.51325 -1.74855,0.10595 z m -2.98644,0.0266 c -0.44422,-0.40054 -0.49876,-0.93853 -0.13923,-1.3732 0.52938,-0.63995 1.46663,-0.61531 1.95102,0.0511 0.50572,0.69593 -0.0477,1.55459 -1.00208,1.55459 -0.30343,0 -0.66781,-0.10456 -0.80971,-0.23262 z m 42.66978,0.15092 c -0.61735,-0.23406 -0.81791,-0.76967 -0.52613,-1.40478 0.3653,-0.7952 1.6736,-0.76025 2.10764,0.0565 0.48485,0.91212 -0.50538,1.75642 -1.58151,1.34846 z m -17.94845,0.11376 c -0.86874,-0.2493 -1.15688,-1.43356 -0.45646,-1.87587 1.06817,-0.67462 2.38734,0.36117 1.77464,1.39341 -0.1828,0.30799 -0.94902,0.58841 -1.31818,0.48246 z m 38.85917,2.41955 c -0.52839,-0.47642 -0.51658,-1.03762 0.0315,-1.49558 0.5038,-0.42102 0.72225,-0.44448 1.3618,-0.14631 1.11533,0.52009 0.54487,1.99099 -0.77698,2.00358 -0.11715,0 -0.39441,-0.16168 -0.61627,-0.36169 z m -15.08974,0.0566 c -0.56605,-0.40147 -0.57857,-1.05687 -0.0297,-1.55187 0.44623,-0.40236 0.75435,-0.44842 1.29189,-0.19331 0.48604,0.23067 0.60001,0.41347 0.60298,0.96727 0.002,0.50597 -0.60989,1.08503 -1.14789,1.08503 -0.15638,0 -0.47921,-0.13823 -0.71737,-0.30712 z m -2.81596,0.13004 c -0.4598,-0.23509 -0.56979,-0.41958 -0.57268,-0.96051 -0.002,-0.33391 0.12347,-0.56023 0.4305,-0.77798 0.56865,-0.40327 0.97157,-0.38774 1.46438,0.0565 0.54894,0.49501 0.5364,1.1504 -0.0295,1.55186 -0.48529,0.34422 -0.80984,0.3769 -1.29255,0.13005 z m -12.30339,-0.13004 c -0.56607,-0.40147 -0.5786,-1.05687 -0.0295,-1.55187 0.5063,-0.45648 1.07801,-0.4642 1.54007,-0.0208 0.50563,0.48526 0.47197,1.18417 -0.0757,1.57259 -0.23816,0.16889 -0.56098,0.30711 -0.71738,0.30711 -0.15638,0 -0.47921,-0.13822 -0.71736,-0.30711 z m -3.14135,-0.16085 c -0.32958,-0.3532 -0.41054,-0.56218 -0.32992,-0.85178 0.0588,-0.21105 0.11928,-0.38931 0.1346,-0.39611 0.0154,-0.006 0.21057,-0.12364 0.43405,-0.25959 0.56041,-0.341 0.93599,-0.30995 1.4089,0.11646 0.5141,0.46356 0.5141,1.03172 0,1.49528 -0.55646,0.50176 -1.11501,0.46635 -1.64759,-0.10424 z m -2.9689,0.10424 c -0.51412,-0.46357 -0.51412,-1.03172 0,-1.49528 0.46851,-0.42245 0.74407,-0.44928 1.41251,-0.13759 0.67045,0.3126 0.72216,1.07155 0.11329,1.6632 -0.44718,0.43453 -1.02291,0.4231 -1.5258,-0.0306 z m -3.00422,0.0208 c -0.50561,-0.48533 -0.47199,-1.18423 0.0757,-1.57265 0.56864,-0.40326 0.97157,-0.38773 1.46439,0.0565 0.54891,0.495 0.5364,1.1504 -0.0295,1.55186 -0.56508,0.4008 -1.06794,0.38884 -1.51045,-0.0357 z m -3.07642,-0.0208 c -0.51409,-0.46357 -0.51409,-1.03172 0,-1.49528 0.78255,-0.70554 1.96314,-0.27109 1.96314,0.72249 0,1.01645 -1.17843,1.48034 -1.96314,0.77279 z m -2.9373,0.05 c -0.59209,-0.41992 -0.5456,-1.22485 0.0955,-1.65457 1.16981,-0.78415 2.46815,0.74147 1.40063,1.64572 -0.47925,0.40595 -0.93253,0.40868 -1.49621,0.008 z m -2.8517,0.21416 c -0.34374,-0.12465 -0.7295,-0.94207 -0.62382,-1.32176 0.0986,-0.35417 0.8383,-0.80174 1.32503,-0.80174 0.40902,0 1.0689,0.68611 1.0689,1.11135 0,0.72639 -0.99292,1.29415 -1.77011,1.01215 z m -3.2201,-0.20793 c -0.56606,-0.40146 -0.57858,-1.05685 -0.0295,-1.55187 0.49279,-0.44433 0.89572,-0.45985 1.46439,-0.0565 0.59881,0.42472 0.59881,1.18372 0,1.60845 -0.23818,0.16888 -0.56099,0.30714 -0.71739,0.30714 -0.1564,0 -0.47923,-0.13826 -0.71737,-0.30714 z m -3.13004,-0.14876 c -0.48194,-0.51645 -0.49558,-0.57686 -0.243,-1.07667 0.18279,-0.36177 0.76788,-0.69014 1.22963,-0.69014 0.39568,0 1.05302,0.69378 1.05302,1.11135 0,0.48571 -0.68144,1.11136 -1.21047,1.11136 -0.24906,0 -0.56673,-0.17468 -0.82918,-0.4559 z m -2.98021,0.0921 c -0.51411,-0.46355 -0.51411,-1.0317 0,-1.49528 0.53181,-0.47947 0.99507,-0.45921 1.58134,0.0695 0.59017,0.53214 0.59917,0.75043 0.0549,1.33365 -0.52105,0.55834 -1.08409,0.59004 -1.63627,0.0921 z m -2.72906,0.26439 c -0.14927,-0.0357 -0.38205,-0.27095 -0.5173,-0.5228 -0.31003,-0.57717 -0.10536,-1.19314 0.47593,-1.43194 0.57357,-0.23563 0.78085,-0.21313 1.27664,0.1385 1.07344,0.76134 0.13324,2.14379 -1.23527,1.81624 z m -3.35195,-0.29278 c -0.22165,-0.21559 -0.40135,-0.53235 -0.39935,-0.70385 0.009,-0.82843 1.24793,-1.39192 1.93301,-0.87964 0.57665,0.43122 0.63453,1.08824 0.13839,1.57089 -0.53463,0.52021 -1.14562,0.52477 -1.67205,0.0124 z m 54.51787,2.7571 c -0.77991,-0.65515 -0.28147,-1.77241 0.79072,-1.77241 0.71673,0 1.15037,0.38776 1.15037,1.02859 0,0.43946 -0.0912,0.62123 -0.40506,0.80663 -0.54794,0.32371 -1.1029,0.30102 -1.53603,-0.0631 z m -2.96392,0.0427 c -0.52414,-0.3999 -0.5962,-0.94499 -0.18692,-1.41416 0.62613,-0.71768 1.86647,-0.4579 2.06392,0.43225 0.20955,0.94476 -1.05717,1.60735 -1.877,0.98191 z m -3.11904,-0.0837 c -0.72397,-0.69483 -0.25311,-1.73154 0.78649,-1.73154 0.76837,0 1.15696,0.36196 1.15696,1.07758 0,0.93679 -1.22075,1.34762 -1.94345,0.65396 z m -2.95022,0.11231 c -0.46997,-0.29681 -0.50805,-1.23685 -0.0647,-1.59863 0.4135,-0.33742 1.2697,-0.31124 1.67157,0.0513 1.00145,0.90296 -0.43574,2.28708 -1.60685,1.54751 z m -12.16681,-0.0715 c -0.7291,-0.61252 -0.28323,-1.77241 0.6813,-1.77241 0.82564,0 1.25982,0.35749 1.25982,1.03724 0,0.42718 -0.0943,0.63552 -0.36527,0.80662 -0.50339,0.31792 -1.14708,0.28869 -1.57585,-0.0715 z m -3.15082,-0.0991 c -0.61663,-0.70683 -0.0728,-1.67346 0.94145,-1.67346 1.07425,0 1.54769,1.02671 0.78896,1.71082 -0.55388,0.49934 -1.27574,0.48377 -1.73041,-0.0377 z m -2.93213,0.0578 c -0.72155,-0.69248 -0.20782,-1.73154 0.85616,-1.73154 0.67745,0 1.14205,0.4322 1.14205,1.06225 0,0.91549 -1.29115,1.34795 -1.99821,0.66929 z m -2.95578,0.041 c -0.45053,-0.37845 -0.48166,-1.1824 -0.0592,-1.52716 0.72674,-0.59296 2.00025,-0.0887 2.00025,0.79201 0,0.91237 -1.19252,1.36398 -1.9411,0.73515 z m -3.07879,-0.0617 c -0.50631,-0.45655 -0.51486,-0.972 -0.0229,-1.38861 0.53819,-0.4559 1.31334,-0.42556 1.74413,0.0682 0.18735,0.21476 0.34061,0.51787 0.34061,0.67357 0,0.40817 -0.73467,1.01056 -1.23254,1.01056 -0.2342,0 -0.60732,-0.16372 -0.82918,-0.36374 z m -3.00184,0.0617 c -0.42193,-0.3544 -0.46665,-0.97603 -0.10375,-1.44303 0.35972,-0.46305 1.4294,-0.46305 1.78913,0 0.5698,0.73348 0.0511,1.74518 -0.89457,1.74518 -0.23708,0 -0.59289,-0.13596 -0.7907,-0.30215 z m -3.07877,-0.0617 c -0.4928,-0.44433 -0.51008,-0.80766 -0.0628,-1.32039 0.72522,-0.83125 2.29239,-0.2316 2.04535,0.7827 -0.21633,0.88804 -1.27549,1.17522 -1.98257,0.53769 z m -3.03284,0.0674 c -0.73524,-0.66298 -0.18434,-1.77817 0.8784,-1.77817 0.68038,0 1.09369,0.38242 1.09369,1.0119 0,0.59654 -0.50453,1.06264 -1.15037,1.06264 -0.27393,0 -0.63912,-0.13175 -0.82172,-0.29637 z m -3.00202,0.0371 c -0.74538,-0.74575 -0.28058,-1.81521 0.78894,-1.81521 1.07786,0 1.63121,1.13072 0.86736,1.77239 -0.44323,0.37229 -1.30471,0.39458 -1.6563,0.0427 z m -3.06667,-0.13116 c -0.18733,-0.21469 -0.3406,-0.53652 -0.3406,-0.71502 0,-0.46382 0.66331,-0.96903 1.27231,-0.96903 0.66408,0 1.25688,0.62804 1.11293,1.17904 -0.23421,0.89634 -1.44282,1.1949 -2.04464,0.50501 z m 51.45544,2.7146 c -0.44829,-0.43024 -0.4534,-0.84054 -0.0167,-1.34114 0.44526,-0.51039 1.17218,-0.52163 1.72111,-0.0267 0.49281,0.44435 0.51007,0.80767 0.0628,1.32035 -0.44523,0.51034 -1.26201,0.53229 -1.76718,0.0474 z m -6.10663,-0.0584 c -0.60673,-0.69547 -0.0284,-1.67339 0.98969,-1.67339 0.53195,0 1.14411,0.59148 1.14411,1.1055 0,0.89031 -1.50342,1.29046 -2.1338,0.56789 z m -3.03363,0.0719 c -0.81926,-1.05464 0.71604,-2.35067 1.71628,-1.44882 0.41965,0.37839 0.43476,1.20114 0.0283,1.53289 -0.44967,0.36697 -1.43077,0.31967 -1.74439,-0.0841 z m -2.94198,0.0584 c -0.38928,-0.38787 -0.34552,-1.13745 0.0877,-1.50137 1.03722,-0.87131 2.50606,0.3864 1.68527,1.44306 -0.3292,0.42373 -1.37175,0.45803 -1.77296,0.0584 z m -9.13447,-0.11939 c -0.18731,-0.21472 -0.3406,-0.51781 -0.3406,-0.67352 0,-0.40823 0.73469,-1.01055 1.23256,-1.01055 0.53264,0 1.23254,0.61259 1.23254,1.07875 0,0.90544 -1.49188,1.33046 -2.1245,0.60532 z m -3.01114,0.10985 c -0.66485,-0.60783 -0.0645,-1.79396 0.90806,-1.79396 0.92622,0 1.48617,1.2731 0.80458,1.82925 -0.39115,0.31922 -1.34645,0.29946 -1.71264,-0.0351 z m -3.07875,-0.1205 c -0.90263,-1.03464 0.69466,-2.24362 1.73041,-1.30968 0.46869,0.42258 0.51073,0.83259 0.13797,1.34554 -0.38854,0.5347 -1.3874,0.51547 -1.86838,-0.0357 z m -9.08249,0.0351 c -0.39654,-0.49169 -0.36003,-0.91582 0.11572,-1.34482 0.54895,-0.49494 1.27588,-0.4837 1.72112,0.0266 0.42968,0.49254 0.42968,0.8011 0,1.29363 -0.46217,0.52977 -1.41914,0.54257 -1.8369,0.0247 z m -2.97374,0.095 c -0.3742,-0.3728 -0.34516,-1.14481 0.0566,-1.50717 0.73525,-0.66292 1.97209,-0.16622 1.97209,0.79201 0,0.292 -0.12347,0.59641 -0.30052,0.7409 -0.40616,0.33142 -1.38442,0.31687 -1.72826,-0.026 z m -3.05384,-0.1194 c -0.42969,-0.49254 -0.42969,-0.80111 0,-1.29364 0.44524,-0.5104 1.17217,-0.52164 1.72112,-0.0267 0.22185,0.20001 0.40336,0.52086 0.40336,0.71296 0,0.93777 -1.46969,1.35802 -2.12448,0.6074 z m -3.04293,0.061 c -0.36635,-0.47163 -0.31574,-1.05011 0.12457,-1.42299 1.10006,-0.93186 2.64133,0.47675 1.63361,1.493 -0.38541,0.38861 -1.43431,0.34684 -1.75815,-0.0699 z m 42.96584,0.36 c -0.86535,-0.24326 -1.1069,-1.21919 -0.44134,-1.78293 0.78164,-0.66208 1.9204,-0.20774 1.9204,0.76616 0,0.69178 -0.7649,1.21758 -1.47906,1.01677 z m -14.95502,0 c -0.98997,-0.14078 -1.33741,-1.1639 -0.60568,-1.7837 0.99551,-0.84325 2.40531,0.21399 1.75229,1.31409 -0.22021,0.37108 -0.6376,0.54199 -1.14661,0.46961 z m -12.24342,0 c -0.18077,-0.0318 -0.45645,-0.20202 -0.61261,-0.37806 -0.89039,-1.00378 0.67584,-2.33764 1.68084,-1.43149 0.86077,0.77615 0.12618,2.02042 -1.06823,1.80955 z m -3.04649,0 c -0.82865,-0.23054 -1.10348,-1.2503 -0.48683,-1.80629 0.98885,-0.89166 2.53881,0.38995 1.73032,1.43069 -0.24907,0.32065 -0.82064,0.49325 -1.24349,0.3756 z m 26.81898,2.5279 c -0.56658,-0.43225 -0.60332,-0.96039 -0.1041,-1.49533 0.52786,-0.56569 1.02582,-0.59791 1.6161,-0.10457 0.54804,0.45799 0.55984,1.01918 0.0315,1.49561 -0.47385,0.42724 -1.06768,0.46739 -1.54349,0.10434 z m -3.07298,-0.10434 c -0.51411,-0.46357 -0.51411,-1.03172 0,-1.49528 0.44623,-0.40236 0.75437,-0.44843 1.2919,-0.19331 0.49853,0.23657 0.60006,0.41307 0.60297,1.04827 0.002,0.46239 -0.0762,0.58854 -0.48234,0.77796 -0.66845,0.31164 -0.94401,0.2848 -1.41253,-0.13764 z m -3.00421,0.0208 c -0.5056,-0.48524 -0.47198,-1.18417 0.0757,-1.57257 0.54317,-0.38522 0.79126,-0.38535 1.39046,0 0.61348,0.39385 0.64417,1.03833 0.0739,1.5525 -0.50634,0.45655 -1.07804,0.46421 -1.54009,0.0208 z m -3.0764,-0.0208 c -0.66294,-0.59771 -0.47979,-1.37537 0.40143,-1.70451 0.4149,-0.15494 0.5632,-0.14286 0.98185,0.0802 0.78955,0.4205 0.84332,1.19055 0.1205,1.72543 -0.4868,0.36027 -1.03282,0.32357 -1.50379,-0.10097 z m -3.00421,0.0208 c -0.5056,-0.48524 -0.47199,-1.18417 0.0757,-1.57257 0.56863,-0.40334 0.97158,-0.38775 1.46438,0.0566 0.51761,0.46674 0.52723,1.10968 0.0231,1.5368 -0.49346,0.41801 -1.11454,0.40977 -1.56308,-0.0208 z m -3.07642,-0.0208 c -0.47498,-0.42828 -0.50219,-0.69925 -0.12767,-1.27103 0.2945,-0.44948 0.82357,-0.64779 1.3135,-0.49221 0.43394,0.13771 0.86797,0.66488 0.87221,1.05938 0.006,0.45513 -0.7001,1.06757 -1.22892,1.06757 -0.23418,0 -0.6073,-0.16369 -0.82916,-0.36371 z m -2.92848,0.0566 c -0.59885,-0.42471 -0.59885,-1.18372 0,-1.60845 0.23812,-0.16889 0.56096,-0.30713 0.71736,-0.30713 0.15639,0 0.47921,0.13824 0.71735,0.30713 0.55941,0.39672 0.5948,1.17541 0.0734,1.61345 -0.45872,0.38534 -0.96007,0.38366 -1.50808,-0.006 z m -3.01866,0.0156 c -0.69192,-0.5812 -0.61884,-1.23732 0.19106,-1.71582 0.49353,-0.29161 1.14274,-0.15493 1.48205,0.31201 0.36269,0.4991 0.3167,0.91225 -0.14823,1.33144 -0.48691,0.43901 -1.05625,0.46603 -1.52488,0.0723 z m -3.09159,-0.0723 c -0.52842,-0.47643 -0.51659,-1.03763 0.0314,-1.49561 0.57119,-0.47733 0.96397,-0.45856 1.55491,0.0741 0.39479,0.356 0.46411,0.51432 0.37122,0.84799 -0.25053,0.89994 -1.26559,1.19726 -1.95758,0.5733 z m -3.00422,0.0208 c -0.50561,-0.48528 -0.47199,-1.18418 0.0757,-1.57259 0.56864,-0.40333 0.97157,-0.38774 1.46439,0.0565 0.51409,0.46354 0.51409,1.03171 0,1.49527 -0.50632,0.45654 -1.07801,0.46421 -1.54008,0.0208 z m -3.07642,-0.0208 c -0.22185,-0.20009 -0.40173,-0.51677 -0.39973,-0.70386 0.006,-0.46395 0.47799,-0.96844 1.01934,-1.08719 0.36271,-0.0796 0.54548,-0.009 0.96174,0.36521 0.41426,0.37354 0.49339,0.54172 0.40799,0.86717 -0.23575,0.89829 -1.28566,1.19314 -1.98934,0.55867 z m -2.9285,0.0565 c -0.59883,-0.42471 -0.59883,-1.18373 0,-1.60843 0.23814,-0.16891 0.56098,-0.30714 0.71737,-0.30714 0.55121,0 1.15038,0.57887 1.15038,1.11134 0,0.5325 -0.59917,1.11138 -1.15038,1.11138 -0.15639,0 -0.47923,-0.13825 -0.71737,-0.30715 z m -3.12065,-0.0565 c -0.44755,-0.37399 -0.49638,-0.52619 -0.33872,-1.05562 0.099,-0.33287 0.85633,-0.80369 1.29252,-0.80369 0.41538,0 1.07646,0.68254 1.07646,1.11135 0,0.48208 -0.68006,1.11134 -1.20108,1.11134 -0.21688,0 -0.59001,-0.1635 -0.82918,-0.36338 z m -2.95995,0.0565 c -0.59137,-0.41938 -0.58985,-1.11778 0.003,-1.57744 0.54021,-0.41856 0.87473,-0.42575 1.43134,-0.0312 0.56605,0.40147 0.59037,1.13793 0.0526,1.59335 -0.47717,0.4042 -0.93223,0.40882 -1.4874,0.0149 z m 42.32661,2.67225 c -0.45268,-0.38029 -0.4636,-1.02322 -0.0246,-1.44811 0.69628,-0.67385 1.9657,-0.21341 1.9657,0.71294 0,0.91238 -1.1925,1.36398 -1.9411,0.73517 z m -2.96392,0.0427 c -0.56532,-0.43133 -0.61688,-0.99883 -0.13053,-1.43732 0.52894,-0.47689 1.28107,-0.5 1.74238,-0.0533 0.97363,0.94232 -0.51999,2.32391 -1.6118,1.4909 z m -3.14128,-0.065 c -0.70765,-0.68482 -0.17298,-1.75019 0.87841,-1.75019 0.69494,0 1.08728,0.38887 1.08728,1.07758 0,0.92596 -1.25883,1.35672 -1.96569,0.67261 z m -2.96453,0.0278 c -0.41967,-0.37839 -0.43478,-1.20113 -0.0283,-1.53294 0.43019,-0.35098 1.26158,-0.31156 1.66516,0.079 0.9901,0.95824 -0.6103,2.37958 -1.63701,1.45389 z m -2.89246,0.18295 c -0.26832,-0.16158 -0.55873,-0.71367 -0.55873,-1.06233 0,-0.86709 1.4987,-1.22574 2.1245,-0.50838 0.44732,0.51275 0.43006,0.87607 -0.0628,1.3204 -0.39558,0.35665 -1.12466,0.47805 -1.50301,0.25031 z m -3.18818,-0.18295 c -0.41964,-0.37839 -0.43476,-1.20113 -0.0283,-1.53294 0.41352,-0.33742 1.26971,-0.31123 1.67158,0.0511 0.42256,0.38099 0.42256,1.10076 0,1.48181 -0.18261,0.16461 -0.5478,0.29637 -0.82171,0.29637 -0.2739,0 -0.63911,-0.13176 -0.8217,-0.29637 z m -3.11127,-0.134 c -0.42666,-0.54029 -0.42655,-0.76401 0,-1.25376 0.2471,-0.28315 0.49216,-0.39041 0.89202,-0.39041 0.39988,0 0.6449,0.10729 0.89195,0.39041 0.42967,0.49253 0.42967,0.80109 0,1.29364 -0.4896,0.5612 -1.32468,0.54255 -1.78465,-0.0396 z m -2.93835,0.12823 c -0.73696,-0.61908 -0.2388,-1.7724 0.76558,-1.7724 0.65531,0 1.17554,0.45031 1.17554,1.01763 0,0.93159 -1.18303,1.39158 -1.94112,0.75477 z m -3.03301,0.0427 c -0.45856,-0.45882 -0.5015,-0.9743 -0.11773,-1.41414 0.68021,-0.77972 2.13377,-0.34494 2.13377,0.63831 0,0.8341 -1.4139,1.37822 -2.01598,0.77583 z m -3.04994,-0.0837 c -0.72155,-0.6925 -0.20782,-1.73154 0.85616,-1.73154 0.67745,0 1.14205,0.43219 1.14205,1.06225 0,0.91542 -1.29115,1.34794 -1.99821,0.66929 z m -2.96165,0.0663 c -0.44987,-0.35176 -0.47915,-1.20509 -0.0534,-1.55257 0.43018,-0.35098 1.26155,-0.31156 1.66515,0.079 0.99756,0.96547 -0.50501,2.33906 -1.61185,1.47353 z m -3.13567,-0.11378 c -0.43109,-0.4941 -0.43292,-0.94616 -0.006,-1.35978 0.4858,-0.47011 1.3494,-0.43822 1.78941,0.0662 0.4297,0.49252 0.4297,0.80109 0,1.29363 -0.24704,0.28324 -0.49207,0.39049 -0.89193,0.39049 -0.39988,0 -0.64492,-0.1073 -0.89195,-0.39049 z m -2.93909,0.0884 c -0.45373,-0.38112 -0.46844,-1.08159 -0.0309,-1.47603 0.75539,-0.68114 1.97208,-0.2136 1.97208,0.75776 0,0.51494 -0.56982,1.02041 -1.15039,1.02041 -0.23708,0 -0.59289,-0.13596 -0.79071,-0.30214 z m -3.14153,-0.0884 c -0.42969,-0.49255 -0.42969,-0.80111 0,-1.29363 0.24703,-0.28317 0.49205,-0.39043 0.89193,-0.39043 0.39987,0 0.64493,0.1073 0.89194,0.39043 0.44731,0.51273 0.43003,0.87606 -0.0628,1.32039 -0.54894,0.49493 -1.27586,0.48364 -1.72113,-0.0266 z m 33.72977,3.0566 c -1.12285,-0.40787 -0.78821,-2.07343 0.41661,-2.07343 1.10104,0 1.6057,1.30293 0.74196,1.9156 -0.47175,0.33453 -0.61751,0.35441 -1.15857,0.15783 z m -3.2225,-0.14947 c -0.83047,-0.58906 -0.41331,-1.92396 0.60123,-1.92396 0.59521,0 1.25473,0.54224 1.25473,1.03159 0,0.9179 -1.08462,1.43942 -1.85596,0.89237 z m -2.82777,0.12641 c -0.80074,-0.39196 -0.95287,-1.02495 -0.3989,-1.65995 0.55202,-0.63277 1.46903,-0.48213 1.94241,0.31903 0.23036,0.38989 0.13271,0.78382 -0.27405,1.1057 -0.41554,0.3289 -0.89616,0.41791 -1.26946,0.23522 z m -2.98846,0.0215 c -0.74946,-0.2694 -0.94673,-1.26832 -0.34952,-1.76994 0.773,-0.64935 1.9411,-0.17624 1.9411,0.78623 0,0.75354 -0.82071,1.26082 -1.59158,0.98371 z m -3.3513,-0.28253 c -0.26421,-0.23827 -0.48038,-0.57465 -0.48038,-0.74763 0,-0.43478 0.71821,-1.0419 1.23256,-1.0419 0.53868,0 1.23254,0.61439 1.23254,1.09139 0,0.38964 -0.82456,1.13125 -1.25777,1.13125 -0.13569,0 -0.46273,-0.1949 -0.72695,-0.43311 z m -2.72933,0.28253 c -0.79325,-0.28511 -0.95003,-1.28703 -0.27615,-1.76493 0.56508,-0.40081 1.06792,-0.38887 1.51041,0.0357 0.87774,0.84243 -0.0572,2.15223 -1.23426,1.72914 z m -2.95129,0 c -0.42738,-0.15384 -0.88037,-0.70789 -0.88037,-1.0768 0,-0.38672 0.7366,-0.99754 1.20292,-0.99754 0.21788,0 0.59103,0.13816 0.82916,0.30713 1.00596,0.7134 0.0398,2.19608 -1.15171,1.76721 z m -3.09896,-0.0306 c -0.82208,-0.42502 -0.96052,-1.117 -0.33615,-1.67996 0.76219,-0.68728 1.90279,-0.29639 1.93301,0.66236 0.0122,0.37639 -0.0977,0.59322 -0.42986,0.85087 -0.49808,0.38631 -0.68958,0.41365 -1.167,0.16673 z m -2.87598,0.0723 c -0.87649,-0.28533 -1.1568,-1.44312 -0.45646,-1.88537 1.14766,-0.72483 2.55529,0.57198 1.64793,1.51814 -0.32129,0.33507 -0.81907,0.48851 -1.19147,0.36723 z m -3.20758,-0.0337 c -0.51207,-0.18728 -0.82709,-0.82787 -0.64134,-1.3041 0.35184,-0.90213 1.66851,-1.00268 2.18862,-0.16715 0.30627,0.49202 0.0247,1.19671 -0.57714,1.44395 -0.46577,0.19131 -0.51771,0.19274 -0.97014,0.0272 z m -2.87305,0.0337 c -0.87444,-0.28467 -1.10703,-1.22998 -0.44133,-1.79384 0.42646,-0.36124 0.78617,-0.40283 1.31494,-0.15188 0.4839,0.22971 0.59998,0.41353 0.60296,0.95505 0.003,0.65813 -0.81368,1.20646 -1.47657,0.99067 z m -3.06379,-0.0416 c -0.42738,-0.15382 -0.88039,-0.70787 -0.88039,-1.07679 0,-0.39725 0.74176,-0.99755 1.23256,-0.99755 0.53419,0 1.23255,0.61304 1.23255,1.08194 0,0.6954 -0.87958,1.2462 -1.58472,0.9924 z m 29.88001,2.47262 c -0.5105,-0.48993 -0.47207,-1.1841 0.0875,-1.58103 0.52033,-0.36897 1.12484,-0.30402 1.56836,0.16858 0.4295,0.45765 0.36649,1.08525 -0.14543,1.44831 -0.56508,0.40075 -1.06792,0.3888 -1.51043,-0.0358 z m -3.0764,-0.0208 c -0.48691,-0.439 -0.51688,-0.95233 -0.0803,-1.3749 0.46909,-0.45401 0.94346,-0.54658 1.40471,-0.27408 0.8193,0.48404 0.8954,1.13755 0.2004,1.72135 -0.46862,0.39366 -1.03798,0.36664 -1.52486,-0.0724 z m -3.00185,0.0617 c -0.52147,-0.43802 -0.48605,-1.21666 0.0732,-1.61343 0.54317,-0.38521 0.79125,-0.38536 1.39044,0 0.35888,0.23041 0.47731,0.42569 0.47731,0.78706 0,0.9765 -1.16981,1.47495 -1.94109,0.82704 z m -3.07915,-0.09 c -0.62766,-0.61069 -0.48005,-1.25154 0.38382,-1.66645 0.67803,-0.32564 1.44478,0.0797 1.61669,0.85464 0.0774,0.34968 0.009,0.52363 -0.32344,0.82357 -0.54667,0.49293 -1.16274,0.48857 -1.67707,-0.0122 z m -3.00148,0.09 c -0.48868,-0.41047 -0.46949,-1.09407 0.0437,-1.55685 0.49279,-0.44427 0.89571,-0.45986 1.46435,-0.0565 0.85262,0.60472 0.36169,1.91558 -0.71737,1.91558 -0.23707,0 -0.59288,-0.13598 -0.79069,-0.30214 z m -2.93054,0.0396 c -0.71922,-0.52275 -0.63698,-1.2641 0.19469,-1.75544 0.34319,-0.20274 0.48314,-0.21107 0.90436,-0.054 0.89064,0.33265 1.07713,1.10757 0.41108,1.70807 -0.47106,0.42479 -1.01475,0.46117 -1.51013,0.10108 z m -3.10634,-0.10108 c -0.66608,-0.60049 -0.47957,-1.37543 0.41105,-1.7081 0.42352,-0.15817 0.56125,-0.14888 0.91749,0.0617 0.79077,0.46719 0.86776,1.23516 0.17523,1.7477 -0.48678,0.36021 -1.03281,0.32351 -1.50377,-0.10107 z m -3.00185,0.0617 c -0.52674,-0.44244 -0.48609,-1.21663 0.085,-1.6218 0.76043,-0.5393 1.85916,-0.026 1.85343,0.86607 -0.002,0.47401 -0.13216,0.66415 -0.60296,0.88756 -0.52525,0.24926 -0.92946,0.20937 -1.33562,-0.13183 z m -3.07879,-0.0617 c -0.22185,-0.20001 -0.40339,-0.52372 -0.40339,-0.71926 0,-0.45141 0.69764,-1.13967 1.15519,-1.13967 0.45117,0 1.30995,0.77408 1.30995,1.18073 0,0.43478 -0.71821,1.04192 -1.23257,1.04192 -0.2342,0 -0.60732,-0.16365 -0.82918,-0.36372 z m -3.00184,0.0617 c -0.52146,-0.43802 -0.48605,-1.21663 0.0732,-1.61342 0.23813,-0.1689 0.56097,-0.30707 0.71737,-0.30707 0.54274,0 1.15036,0.579 1.15036,1.09621 0,0.95059 -1.18944,1.45572 -1.94108,0.82428 z m -3.0489,-0.0885 c -0.45189,-0.4075 -0.48865,-0.51963 -0.33713,-1.0284 0.12131,-0.40749 0.96541,-0.84905 1.39046,-0.72743 0.49247,0.14095 0.97852,0.67234 0.97852,1.06976 0,0.45331 -0.69634,1.07667 -1.20267,1.07667 -0.21776,0 -0.59088,-0.17578 -0.82918,-0.3906 z m 30.29852,2.7615 c -0.69995,-0.63111 -0.18836,-1.77819 0.79305,-1.77819 0.57033,0 1.17903,0.54627 1.17903,1.05803 0,0.8411 -1.30816,1.31878 -1.97208,0.72016 z m -3.09385,-0.0467 c -0.73959,-0.7099 -0.23022,-1.73162 0.86331,-1.73162 0.41277,0 0.65427,0.10435 0.90385,0.39044 0.4297,0.49259 0.4297,0.80117 0,1.2937 -0.44523,0.51033 -1.262,0.53229 -1.76716,0.0474 z m -2.98679,0.0467 c -0.42257,-0.381 -0.42257,-1.10078 0,-1.48184 0.18261,-0.1646 0.54781,-0.29635 0.82172,-0.29635 1.00767,0 1.53301,1.13681 0.8217,1.77819 -0.1826,0.16461 -0.5478,0.29634 -0.8217,0.29634 -0.27391,0 -0.63911,-0.13173 -0.82172,-0.29634 z m -3.11055,-0.094 c -0.42968,-0.49254 -0.42968,-0.80111 0,-1.2937 0.24705,-0.28317 0.49208,-0.39042 0.89196,-0.39042 0.59057,0 1.23254,0.54028 1.23254,1.0373 0,0.49695 -0.64197,1.03722 -1.23254,1.03722 -0.39988,0 -0.64491,-0.10729 -0.89196,-0.3904 z m -2.93907,0.0884 c -0.74734,-0.62778 -0.23671,-1.7724 0.79073,-1.7724 1.02741,0 1.53804,1.14462 0.7907,1.7724 -0.19781,0.16617 -0.55364,0.30213 -0.7907,0.30213 -0.23709,0 -0.59289,-0.13596 -0.79073,-0.30213 z m -3.14154,-0.0884 c -0.42071,-0.48227 -0.42203,-0.59869 -0.0136,-1.20251 0.26799,-0.39633 0.42797,-0.48161 0.90326,-0.48161 1.12159,0 1.64831,1.08004 0.85463,1.75232 -0.53822,0.4559 -1.31336,0.42557 -1.74416,-0.0682 z m -2.96365,0.066 c -1.01858,-0.98578 0.47885,-2.32924 1.64618,-1.47694 0.46193,0.33728 0.49898,1.08042 0.0749,1.50294 -0.40945,0.40794 -1.28639,0.39471 -1.7211,-0.026 z m -3.02124,0.0533 c -0.36757,-0.36619 -0.35142,-1.24823 0.0285,-1.55824 0.71476,-0.58327 2.00024,-0.0909 2.00024,0.76618 0,0.87034 -1.40116,1.41743 -2.02879,0.79206 z m -3.03714,-0.072 c -0.37753,-0.36235 -0.49044,-1.13884 -0.16559,-1.13884 0.10548,0 0.14355,-0.0435 0.0847,-0.0964 -0.18869,-0.17013 0.44579,-0.48662 0.98525,-0.49148 0.37225,-0.006 0.61998,0.10741 0.86278,0.38566 0.42969,0.49261 0.42969,0.80118 0,1.29371 -0.44523,0.51033 -1.262,0.53229 -1.76715,0.0475 z m -2.95579,0.041 c -0.75703,-0.6359 -0.23603,-1.77238 0.81252,-1.77238 0.62916,0 1.12857,0.46906 1.12857,1.05997 0,0.89132 -1.20266,1.33273 -1.94109,0.71241 z m 24.53797,2.94645 c -0.82961,-0.40919 -0.97039,-1.11604 -0.33613,-1.6879 0.70366,-0.63446 1.75358,-0.33959 1.98932,0.55868 0.0849,0.32365 0.007,0.49273 -0.3912,0.85202 -0.53502,0.48241 -0.75006,0.52964 -1.26199,0.2772 z m -2.87596,0.0643 c -1.24273,-0.40459 -0.95824,-2.11611 0.35171,-2.11611 0.90502,0 1.50182,1.2876 0.83976,1.81176 -0.35456,0.2807 -0.86413,0.41089 -1.19147,0.30435 z m -3.23403,-0.0696 c -0.19693,-0.0859 -0.44765,-0.35105 -0.55712,-0.58933 -0.53922,-1.1738 1.30281,-2.009 2.07802,-0.94226 0.39534,0.54405 0.17883,1.18274 -0.49921,1.47287 -0.62567,0.26768 -0.55202,0.26346 -1.02169,0.0584 z m -3.2649,-0.18754 c -0.51762,-0.4667 -0.52725,-1.10967 -0.0229,-1.53681 0.49345,-0.41801 1.11454,-0.40976 1.56308,0.0208 0.3519,0.33772 0.47197,1.05127 0.23157,1.37593 -0.16483,0.22257 -0.78078,0.50378 -1.10347,0.50378 -0.14562,0 -0.4463,-0.16371 -0.66817,-0.36372 z m -2.6535,0.21274 c -0.50567,-0.18177 -0.92319,-0.8048 -0.79098,-1.18042 0.15914,-0.45213 0.74534,-0.89132 1.18963,-0.89132 0.49635,0 1.19518,0.62668 1.19044,1.06757 -0.008,0.71639 -0.87128,1.26206 -1.58909,1.00417 z m -3.1213,0 c -0.41332,-0.15013 -0.7092,-0.5812 -0.7092,-1.03322 0,-0.42405 0.7149,-1.04028 1.20687,-1.04028 1.0999,0 1.55392,1.21445 0.70127,1.8757 -0.48116,0.3732 -0.64276,0.39983 -1.19894,0.1978 z m -3.23432,-0.15791 c -0.56603,-0.40147 -0.59036,-1.13794 -0.0526,-1.59338 0.4772,-0.40418 0.93225,-0.40879 1.48738,-0.0149 0.68303,0.48442 0.56624,1.3247 -0.23608,1.6988 -0.60316,0.28122 -0.68329,0.27518 -1.19864,-0.0904 z m -2.72809,0.19832 c -0.39056,-0.13844 -0.81606,-0.68009 -0.82193,-1.04633 -0.007,-0.44239 0.69238,-1.06758 1.19446,-1.06758 0.50415,0 1.04822,0.42622 1.18879,0.93122 0.0882,0.31656 0.0103,0.48391 -0.38722,0.84318 -0.49188,0.44358 -0.70606,0.50547 -1.1741,0.33951 z m 20.77597,2.41232 c -0.48691,-0.439 -0.51688,-0.95239 -0.0803,-1.37489 0.46909,-0.45409 0.94346,-0.54659 1.40471,-0.27407 0.8146,0.48123 0.89524,1.2041 0.1956,1.75336 -0.46237,0.36301 -1.04618,0.32285 -1.52006,-0.10436 z m -12.02295,0.10435 c -0.45536,-0.35748 -0.5874,-0.8217 -0.3611,-1.26953 0.38452,-0.76096 1.68539,-0.83364 2.11021,-0.11793 0.62033,1.04515 -0.77514,2.15208 -1.74911,1.38749 z m -2.84245,0.14948 c -0.58698,-0.20579 -0.83252,-0.94818 -0.4993,-1.50958 0.0869,-0.14642 0.38231,-0.35 0.65639,-0.45237 0.42352,-0.1582 0.56125,-0.14896 0.91749,0.0617 1.30564,0.77134 0.37904,2.41012 -1.07458,1.90043 z m -3.25581,-0.19229 c -0.46662,-0.39197 -0.48134,-1.18268 -0.029,-1.55186 0.46857,-0.38236 1.29284,-0.34896 1.6669,0.0675 0.93457,1.04061 -0.55712,2.39226 -1.63803,1.4843 z m 21.11227,2.69834 c -0.36757,-0.36623 -0.3514,-1.24821 0.0285,-1.55827 0.69835,-0.56984 2.00025,-0.0409 2.00025,0.81281 0,0.827 -1.42235,1.34969 -2.02878,0.74546 z m -15.22436,-0.13009 c -0.38369,-0.43979 -0.34075,-0.95533 0.11773,-1.41408 0.58644,-0.5868 2.01598,-0.0461 2.01598,0.76282 0,0.96527 -1.4688,1.41351 -2.13378,0.65126 z m -2.95437,0.0769 c -0.44414,-0.42978 -0.42511,-1.02957 0.0454,-1.42799 0.75483,-0.63941 1.97517,-0.21307 1.97517,0.69002 0,0.97631 -1.28813,1.44674 -2.02046,0.73797 z m 21.29974,2.7763 c -0.58328,-0.48734 -0.58405,-1.13923 -0.001,-1.55218 0.5588,-0.39632 1.11183,-0.39008 1.53269,0.0174 0.53634,0.51911 0.50276,1.08207 -0.0933,1.56498 -0.52938,0.42882 -0.89762,0.42115 -1.43748,-0.0299 z m -2.95997,0.0566 c -0.84649,-0.60037 -0.35773,-1.91557 0.71184,-1.91557 0.55752,0 1.15592,0.58915 1.15592,1.13806 0,0.42672 -0.6798,1.08458 -1.12076,1.08458 -0.17269,0 -0.50885,-0.13816 -0.747,-0.30707 z m -9.01441,0.0533 c -1.0435,-0.59211 -0.56124,-1.96878 0.6897,-1.96878 0.47031,0 1.1537,0.64455 1.1537,1.08817 0,0.82605 -1.05298,1.32904 -1.8434,0.88061 z m -3.17645,-0.10986 c -0.55574,-0.50103 -0.53666,-1.1502 0.046,-1.56342 0.51301,-0.36384 1.29997,-0.31357 1.64602,0.1052 0.36263,0.43881 0.25208,1.17457 -0.22761,1.51483 -0.56863,0.40328 -0.97156,0.38771 -1.46434,-0.0566 z m -3.04549,-0.0695 c -0.586,-0.52833 -0.60565,-0.88348 -0.0773,-1.39744 0.50789,-0.49415 1.13033,-0.50475 1.65871,-0.0287 0.52212,0.47078 0.51176,0.98002 -0.0299,1.46833 -0.55933,0.50435 -0.9571,0.49344 -1.55147,-0.0421 z m -2.72931,0.28394 c -0.79354,-0.2883 -0.94994,-1.2885 -0.27619,-1.76635 0.72295,-0.51274 1.39848,-0.35683 1.86593,0.43075 0.23119,0.38946 -0.0923,1.11206 -0.58927,1.31625 -0.47256,0.19411 -0.5171,0.19496 -1.00047,0.0195 z m 11.80935,2.47347 c -0.72074,-0.69171 -0.23572,-1.78091 0.79307,-1.78091 0.36807,0 0.64236,0.10926 0.8473,0.33747 0.94916,1.05686 -0.6119,2.43058 -1.64037,1.44344 z m -3.07642,-0.0208 c -0.49056,-0.44232 -0.51017,-0.80753 -0.0704,-1.31163 0.42359,-0.48552 0.86841,-0.61226 1.34531,-0.38321 0.86449,0.41531 1.02342,1.11778 0.38345,1.69484 -0.22186,0.20002 -0.595,0.36371 -0.82919,0.36371 -0.23418,0 -0.6073,-0.16369 -0.82916,-0.36371 z m -3.00419,0.0208 c -0.70916,-0.68061 -0.23628,-1.78091 0.76534,-1.78091 0.68581,0 1.17947,0.42023 1.17288,0.99846 -0.006,0.47675 -0.35861,1.04437 -0.54514,0.87619 -0.0589,-0.0533 -0.10697,-0.0188 -0.10697,0.0764 0,0.30942 -0.91217,0.18878 -1.28609,-0.17013 z m 21.17134,2.71388 c -0.44336,-0.39978 -0.42002,-1.05639 0.0517,-1.45598 0.78835,-0.66781 1.92039,-0.20755 1.92039,0.78076 0,0.88517 -1.26055,1.31678 -1.97207,0.67522 z m -6.04962,-0.006 c -0.47279,-0.39718 -0.46361,-1.03995 0.0207,-1.45019 0.45202,-0.38288 0.96043,-0.41068 1.51534,-0.0829 0.55248,0.32636 0.5758,1.26603 0.0399,1.60454 -0.50338,0.31785 -1.14709,0.28869 -1.57586,-0.0715 z m -9.14261,-0.0272 c -0.58508,-0.75317 -0.0765,-1.74519 0.89457,-1.74519 1.00767,0 1.53301,1.13682 0.8217,1.77819 -0.46055,0.41522 -1.38181,0.39749 -1.71627,-0.0331 z m 12.61532,0.31784 c -0.41862,-0.13959 -0.87425,-0.69494 -0.87425,-1.06548 0,-0.41842 0.74226,-0.99755 1.2786,-0.99755 0.99341,0 1.55148,1.16364 0.84335,1.75849 -0.43006,0.36133 -0.80399,0.45252 -1.2477,0.30454 z m 5.93094,2.68283 c -0.18899,-0.0689 -0.44161,-0.33865 -0.5614,-0.59938 -0.18707,-0.40719 -0.18099,-0.52918 0.0431,-0.86549 0.35967,-0.5397 0.98058,-0.72555 1.53317,-0.45889 0.87318,0.42133 0.91454,1.45097 0.074,1.84283 -0.54131,0.25245 -0.6055,0.25717 -1.08897,0.081 z m -3.24969,-0.16305 c -0.59884,-0.42472 -0.59884,-1.18379 0,-1.6085 0.23814,-0.1689 0.56098,-0.30706 0.71737,-0.30706 0.55119,0 1.15037,0.57879 1.15037,1.11133 0,0.53249 -0.59918,1.11131 -1.15037,1.11131 -0.15639,0 -0.47923,-0.13818 -0.71737,-0.30708 z m -2.77712,0.20457 c -0.40552,-0.0953 -0.8067,-0.85549 -0.68405,-1.29612 0.11597,-0.41677 0.72001,-0.82401 1.22208,-0.82401 0.18807,0 0.52347,0.16363 0.74532,0.36371 0.93931,0.8469 0.0463,2.06906 -1.28335,1.75642 z m -3.34335,-0.27037 c -0.54263,-0.4893 -0.48751,-1.1836 0.12658,-1.59513 0.77227,-0.51747 1.78315,-0.0455 1.77848,0.83022 -0.002,0.55397 -0.11703,0.73677 -0.60298,0.96745 -0.54004,0.25628 -0.84598,0.20874 -1.30212,-0.20254 z m -2.91829,0.0657 c -0.55939,-0.3968 -0.5948,-1.17542 -0.0732,-1.61344 0.45872,-0.38535 0.96007,-0.38374 1.50808,0.006 0.56604,0.40146 0.57859,1.05693 0.0295,1.55186 -0.49281,0.44433 -0.89573,0.45992 -1.46436,0.0565 z m -3.12066,-0.0565 c -0.56272,-0.47023 -0.56272,-1.02573 0,-1.49599 0.67726,-0.56589 1.388,-0.43283 1.8482,0.34611 0.25406,0.42998 0.11364,0.83106 -0.425,1.21303 -0.55527,0.39379 -0.8943,0.37878 -1.4232,-0.063 z m 18.13568,2.73428 c -0.41964,-0.3784 -0.43476,-1.20113 -0.0283,-1.53296 0.71478,-0.58321 2.00025,-0.0908 2.00025,0.76624 0,0.88496 -1.28627,1.38509 -1.9721,0.76672 z m -3.04776,-0.0675 c -0.76874,-0.69311 -0.2788,-1.7108 0.82365,-1.7108 0.60896,0 1.23807,0.54066 1.23807,1.06399 0,0.40816 -0.73466,1.01055 -1.23256,1.01055 -0.23418,0 -0.6073,-0.16372 -0.82916,-0.36374 z m -3.00419,0.0209 c -0.43827,-0.42064 -0.46621,-1.15223 -0.0567,-1.48632 0.40618,-0.33143 1.38442,-0.31683 1.72828,0.026 0.98851,0.98493 -0.66324,2.42823 -1.67147,1.46058 z m -2.96158,0.0837 c -0.52414,-0.39991 -0.5962,-0.94499 -0.18692,-1.41413 0.45457,-0.52106 1.26644,-0.54762 1.77648,-0.0578 0.46814,0.44933 0.45235,0.9185 -0.046,1.36788 -0.47387,0.42725 -1.06768,0.46741 -1.54351,0.10436 z m -3.13576,-0.13061 c -0.67509,-0.77384 -0.20677,-1.68407 0.86647,-1.68407 0.70169,0 1.0937,0.38626 1.0937,1.07757 0,0.96943 -1.29419,1.36991 -1.96017,0.6065 z m -2.97005,0.0942 c -0.41967,-0.37839 -0.43478,-1.20114 -0.0283,-1.53295 0.71478,-0.58322 2.00025,-0.0907 2.00025,0.76621 0,0.88497 -1.28626,1.3851 -1.9721,0.76674 z m 18.08685,2.67562 c -0.76946,-0.69378 -0.0748,-1.85594 1.05011,-1.75675 0.3868,0.0344 0.5764,0.16995 0.82744,0.59271 l 0.32569,0.54841 -0.34201,0.41469 c -0.4493,0.54491 -1.36959,0.64423 -1.86123,0.20094 z m -3.0242,0.0169 c -0.34242,-0.34117 -0.35012,-1.04423 -0.0161,-1.47423 0.35097,-0.4518 1.20991,-0.44485 1.68762,0.0138 0.42465,0.40756 0.45548,0.86599 0.0919,1.36633 -0.33335,0.45875 -1.34335,0.51272 -1.76336,0.0943 z m -3.05385,-0.1194 c -0.4297,-0.49253 -0.4297,-0.8011 0,-1.29364 0.67271,-0.77108 2.1245,-0.28245 2.1245,0.71503 0,0.88197 -1.50279,1.2913 -2.1245,0.57861 z m -3.03333,0.0254 c -0.57098,-0.7857 -0.0928,-1.70925 0.88498,-1.70925 0.65872,0 1.15037,0.46512 1.15037,1.08836 0,0.63026 -0.42779,0.9861 -1.1855,0.9861 -0.43983,0 -0.65011,-0.0904 -0.84985,-0.36521 z m -6.08063,0 c -0.35493,-0.48843 -0.33436,-0.84937 0.0753,-1.31883 0.67844,-0.77771 1.96015,-0.32132 1.96015,0.69794 0,0.63026 -0.42781,0.9861 -1.1855,0.9861 -0.43983,0 -0.65012,-0.0904 -0.84986,-0.36521 z m -2.95156,0.0944 c -0.40694,-0.40549 -0.3545,-1.29006 0.0932,-1.57285 0.79516,-0.5022 1.93554,-0.0163 1.93554,0.82521 0,0.86081 -1.39807,1.376 -2.02879,0.74764 z m 6.67469,0.30596 c -0.43541,-0.0651 -1.03039,-0.69969 -1.03039,-1.09894 0,-0.42959 0.73506,-1.01054 1.2786,-1.01054 0.89315,0 1.50197,1.0249 0.97585,1.6428 -0.28527,0.335 -0.79782,0.53041 -1.22406,0.46668 z m -9.37218,-0.11511 c -1.06533,-0.40385 -0.74982,-1.86101 0.42583,-1.96657 0.37582,-0.0337 0.62699,0.0545 0.92871,0.3267 0.49804,0.449 0.52275,0.81401 0.0889,1.31135 -0.41444,0.47501 -0.81592,0.56641 -1.44344,0.32852 z m 26.98703,2.53205 c -0.51411,-0.46349 -0.51411,-1.03171 0,-1.49527 0.62671,-0.5651 1.57366,-0.39639 1.85464,0.33032 0.19749,0.51085 0.0272,0.97332 -0.47505,1.29053 -0.52646,0.33246 -0.91033,0.29758 -1.37959,-0.12558 z m -3.02645,0.0396 c -0.18431,-0.17839 -0.33509,-0.37295 -0.33509,-0.43245 0,-0.059 -0.041,-0.20424 -0.0909,-0.32175 -0.13828,-0.32494 0.70744,-1.14424 1.18124,-1.14424 0.52902,0 1.21048,0.62565 1.21048,1.11136 0,0.48885 -0.68265,1.11137 -1.21871,1.11137 -0.22654,0 -0.5627,-0.14597 -0.74699,-0.32429 z m -3.05417,-0.0396 c -0.52839,-0.47642 -0.51658,-1.03762 0.0315,-1.49561 0.48728,-0.40717 0.684,-0.43743 1.27188,-0.19597 0.56626,0.23261 0.84912,0.88418 0.58094,1.338 -0.46523,0.78739 -1.24158,0.93309 -1.88427,0.35358 z m -2.96204,0.0221 c -0.58866,-0.45654 -0.58866,-1.08276 0,-1.53931 0.56558,-0.43863 0.99396,-0.43239 1.49791,0.0222 0.54893,0.495 0.53641,1.15038 -0.0296,1.55185 -0.55889,0.39641 -0.92374,0.38782 -1.4683,-0.0344 z m -3.08871,-0.0487 c -0.55148,-0.49722 -0.55094,-1.0069 0.001,-1.46864 0.55308,-0.46213 1.11408,-0.46202 1.62688,0 0.4653,0.41952 0.49799,0.67149 0.16295,1.2557 -0.41201,0.71841 -1.13528,0.80422 -1.7914,0.21261 z m -2.95837,0.0835 c -0.59884,-0.42473 -0.59884,-1.18372 0,-1.60843 0.23814,-0.1689 0.56098,-0.30714 0.71737,-0.30714 0.55119,0 1.15037,0.57888 1.15037,1.11135 0,0.53249 -0.59918,1.11135 -1.15037,1.11135 -0.15639,0 -0.47923,-0.13816 -0.71737,-0.30713 z m -2.74294,0.21054 c -0.14059,-0.0344 -0.38793,-0.26412 -0.54966,-0.51098 -0.25152,-0.38392 -0.26433,-0.5134 -0.0885,-0.8962 0.19271,-0.41952 0.70314,-0.71893 1.22567,-0.71893 0.36384,0 1.06498,0.72192 1.06498,1.09648 0,0.69877 -0.84605,1.22594 -1.65254,1.02963 z m -3.33768,-0.21054 c -0.56605,-0.40146 -0.57857,-1.05686 -0.0297,-1.55186 0.4491,-0.40496 0.70312,-0.44284 1.30628,-0.19507 0.8281,0.3402 0.82961,1.54464 0.002,1.88445 -0.57608,0.23666 -0.7828,0.21444 -1.27905,-0.13752 z m -2.95814,0 c -0.59885,-0.42473 -0.59885,-1.18372 0,-1.60843 0.56865,-0.40328 0.97157,-0.38775 1.46438,0.0565 0.54894,0.495 0.5364,1.1504 -0.0295,1.55186 -0.23815,0.16898 -0.56098,0.30713 -0.71739,0.30713 -0.15639,0 -0.4792,-0.13815 -0.71736,-0.30713 z m -3.1521,-0.0565 c -0.22187,-0.20002 -0.40341,-0.53646 -0.40341,-0.74764 0,-0.42524 0.65991,-1.11135 1.06892,-1.11135 0.47497,0 1.18827,0.4266 1.29089,0.77201 0.14626,0.49227 0.14488,0.49648 -0.32015,0.9948 -0.52106,0.55835 -1.08406,0.59004 -1.63625,0.0922 z m 27.23453,2.68795 c -0.72396,-0.69484 -0.2531,-1.73154 0.78649,-1.73154 0.74657,0 1.15696,0.35891 1.15696,1.0119 0,0.96169 -1.22041,1.41362 -1.94345,0.71964 z m -2.99597,0.0697 c -0.80657,-0.58888 -0.2855,-1.80125 0.77419,-1.80125 1.13044,0 1.63659,1.15567 0.77407,1.76739 -0.53549,0.37984 -1.05875,0.39126 -1.54826,0.0338 z m -3.08465,-0.0697 c -0.73959,-0.70984 -0.23022,-1.73154 0.86329,-1.73154 0.41656,0 0.65441,0.10446 0.9132,0.40107 0.91449,1.04827 -0.76216,2.30404 -1.77649,1.33047 z m -2.95579,0.041 c -0.79544,-0.66818 -0.26003,-1.83177 0.83003,-1.80385 1.02485,0.026 1.48357,1.14605 0.73072,1.78378 -0.47719,0.40419 -1.09398,0.41211 -1.56075,0.0202 z m -3.11238,-0.0836 c -0.41604,-0.42796 -0.45487,-0.67339 -0.18082,-1.14287 0.25583,-0.43822 0.4586,-0.541 1.07276,-0.54366 0.37027,0 0.6213,0.11134 0.8628,0.38814 0.44728,0.51275 0.43004,0.87606 -0.0629,1.3204 -0.53234,0.48 -1.21256,0.47116 -1.69197,-0.0222 z m -2.96823,0.0836 c -0.45053,-0.37846 -0.48165,-1.18242 -0.0592,-1.52716 0.40616,-0.33138 1.3844,-0.31683 1.72826,0.026 0.1496,0.14902 0.27198,0.4824 0.27198,0.74089 0,0.93718 -1.18026,1.39959 -1.94109,0.76049 z m -3.07876,-0.0617 c -0.49281,-0.44433 -0.51008,-0.80766 -0.0627,-1.3204 0.44524,-0.51035 1.26203,-0.53228 1.76718,-0.0474 0.44829,0.43031 0.4534,0.84061 0.0167,1.34118 -0.44525,0.51034 -1.17218,0.52164 -1.72111,0.0266 z m -2.92851,0.0566 c -0.49893,-0.35384 -0.55973,-0.86254 -0.16762,-1.40212 0.20359,-0.28016 0.40825,-0.36528 0.87842,-0.36528 0.76837,0 1.15696,0.36198 1.15696,1.07759 0,0.92024 -1.01455,1.29493 -1.86776,0.68981 z m -3.02591,0.0765 c -0.26814,-0.16934 -0.36524,-0.3799 -0.36524,-0.79199 0,-0.70197 0.39753,-1.05185 1.1951,-1.05185 1.039,0 1.49459,1.1007 0.72532,1.75232 -0.44728,0.37886 -1.04457,0.41399 -1.55518,0.0915 z m 24.05828,2.53265 c -0.37178,-0.51156 -0.33049,-1.00975 0.1149,-1.38706 0.78165,-0.66206 1.9204,-0.2078 1.9204,0.76617 0,0.63025 -0.42782,0.98616 -1.18549,0.98616 -0.43983,0 -0.65013,-0.0904 -0.84987,-0.36527 z m -3.04728,-0.0254 c -0.40538,-0.46467 -0.41206,-0.53689 -0.10019,-1.08077 0.25693,-0.44796 0.55076,-0.60328 1.14127,-0.60328 0.48155,0 1.08342,0.58653 1.08342,1.05588 0,0.95629 -1.4613,1.38842 -2.12451,0.62817 z m -5.96964,0.13117 c -0.24111,-0.24361 -0.34967,-0.61136 -0.30617,-1.03732 0.0103,-0.10193 0.16684,-0.31856 0.3476,-0.48156 1.00148,-0.90294 2.53655,0.39289 1.71628,1.44884 -0.32385,0.41686 -1.37294,0.45868 -1.75771,0.0699 z m -3.07464,-0.0649 c -0.42737,-0.41363 -0.42554,-0.86562 0.006,-1.35978 0.44526,-0.5104 1.17218,-0.52164 1.7211,-0.0266 0.50632,0.45648 0.51487,0.97201 0.023,1.38861 -0.50029,0.42374 -1.31062,0.42277 -1.74967,0 z m -6.07508,-0.0662 c -0.4473,-0.51267 -0.43003,-0.876 0.0628,-1.32033 0.54892,-0.49493 1.27586,-0.4837 1.72111,0.0267 0.44451,0.5095 0.43125,0.9629 -0.0397,1.36189 -0.53822,0.45592 -1.31335,0.42558 -1.74416,-0.0683 z m -3.01116,0.0618 c -0.39824,-0.44942 -0.35971,-1.04054 0.0928,-1.42383 0.45201,-0.38295 0.96042,-0.41067 1.51533,-0.0829 0.50878,0.30057 0.56864,1.21127 0.10456,1.58992 -0.4388,0.35806 -1.36129,0.31324 -1.71265,-0.0831 z m -2.97375,0.0572 c -0.38928,-0.38788 -0.34552,-1.13747 0.0877,-1.50138 1.03722,-0.87133 2.50606,0.38646 1.68527,1.44305 -0.3292,0.42375 -1.37175,0.45804 -1.77296,0.0584 z m 18.70961,0.25601 c -0.94041,-0.24289 -1.2145,-1.15222 -0.52372,-1.73731 0.6327,-0.53594 1.44984,-0.40673 1.85102,0.29277 0.20654,0.36009 0.21227,0.49455 0.0349,0.8189 -0.30886,0.56509 -0.77247,0.77804 -1.36231,0.62564 z m -9.12732,0.0427 c -0.85875,-0.23894 -1.09824,-1.21881 -0.43515,-1.78046 0.88064,-0.74602 2.09759,-0.10656 1.92504,1.01138 -0.0807,0.52267 -0.88439,0.93757 -1.48989,0.76908 z m 14.70725,2.42351 c -0.51411,-0.46355 -0.51411,-1.0317 0,-1.49526 0.49278,-0.44431 0.89572,-0.45989 1.46435,-0.0564 0.33454,0.23735 0.43303,0.43761 0.43303,0.88074 0,0.98704 -1.11119,1.38012 -1.89738,0.67115 z m -2.82981,0.21018 c -0.56539,-0.20493 -0.75324,-0.80427 -0.43907,-1.4013 0.28994,-0.55102 0.81724,-0.74298 1.44718,-0.52703 0.81927,0.28089 0.99819,1.14057 0.35757,1.71815 -0.42425,0.38256 -0.75097,0.43283 -1.36568,0.21018 z m -3.25081,-0.21018 c -0.51412,-0.46355 -0.51412,-1.0317 0,-1.49526 0.53571,-0.48302 0.99561,-0.45872 1.59812,0.0845 0.39849,0.35931 0.47533,0.52667 0.38722,0.84329 -0.25127,0.90264 -1.28564,1.19834 -1.98534,0.56742 z m -2.99177,0.0759 c -0.53849,-0.40507 -0.5067,-1.2233 0.0633,-1.62762 0.23814,-0.16885 0.56097,-0.30705 0.71737,-0.30705 0.1564,0 0.4792,0.1382 0.71736,0.30705 0.56605,0.40151 0.57857,1.0569 0.0298,1.55188 -0.47873,0.43163 -1.01889,0.45842 -1.52765,0.0759 z m -3.0574,-0.0759 c -0.54801,-0.45794 -0.55983,-1.01923 -0.0315,-1.49562 0.51647,-0.46575 1.04419,-0.46152 1.61145,0.0135 0.56134,0.46929 0.57824,1.00344 0.047,1.48264 -0.5128,0.46233 -1.07381,0.46245 -1.62689,0 z m -2.95995,0.0563 c -0.59884,-0.42477 -0.59884,-1.18376 0,-1.60853 0.23814,-0.16883 0.56098,-0.30704 0.71737,-0.30704 0.55119,0 1.15037,0.57875 1.15037,1.11131 0,0.53255 -0.59918,1.11135 -1.15037,1.11135 -0.15639,0 -0.47923,-0.13813 -0.71737,-0.30709 z m -3.03727,0.0478 c -0.56658,-0.43236 -0.60332,-0.96037 -0.1041,-1.49539 0.52786,-0.56561 1.02582,-0.59789 1.6161,-0.10402 0.54804,0.45793 0.55984,1.01922 0.0315,1.49549 -0.47385,0.42736 -1.06768,0.46746 -1.54349,0.10403 z m -3.0832,-0.11377 c -0.54263,-0.48924 -0.48751,-1.18354 0.12658,-1.59509 0.81838,-0.54839 1.78098,-0.0416 1.78098,0.9375 0,0.49059 -0.0735,0.61269 -0.48486,0.80451 -0.6712,0.31295 -0.94402,0.28469 -1.42274,-0.14692 z m 21.16414,2.69704 c -0.72155,-0.6926 -0.20781,-1.73141 0.85617,-1.73141 1.05187,0 1.51824,1.09301 0.75859,1.77791 -0.44334,0.3999 -1.17162,0.3787 -1.61476,-0.047 z m -2.7848,0.2437 c -0.1149,-0.042 -0.31774,-0.2655 -0.45079,-0.4976 -0.61637,-1.07439 0.9392,-2.02168 1.86358,-1.13446 0.8853,0.84946 -0.17939,2.07966 -1.41279,1.63206 z m -3.29346,-0.2029 c -0.63539,-0.5337 -0.38468,-1.4551 0.47541,-1.74751 0.50931,-0.1731 1.04692,0.0123 1.38143,0.47033 0.73596,1.01248 -0.86269,2.11238 -1.85684,1.27718 z m -2.98915,0.012 c -0.41964,-0.3785 -0.43476,-1.20075 -0.0283,-1.53261 0.72078,-0.58822 2.00025,-0.0673 2.00025,0.81391 0,0.8669 -1.28747,1.336 -1.9721,0.7187 z m -3.11054,-0.094 c -0.44448,-0.5095 -0.43126,-0.9627 0.0398,-1.36163 0.5382,-0.45597 1.31334,-0.42562 1.74414,0.0685 0.42968,0.49243 0.42968,0.80083 0,1.29333 -0.24705,0.2832 -0.49207,0.3905 -0.89196,0.3905 -0.39987,0 -0.6449,-0.1077 -0.89193,-0.3905 z m -2.93907,0.088 c -0.76498,-0.6424 -0.21042,-1.77202 0.86997,-1.77202 0.67015,0 1.07112,0.42525 1.07112,1.13572 0,0.8577 -1.20667,1.2534 -1.94109,0.6363 z m -2.96392,0.043 c -0.52414,-0.4001 -0.5962,-0.945 -0.18692,-1.41403 0.44934,-0.51506 1.30799,-0.55164 1.79873,-0.0771 0.96706,0.93573 -0.52736,2.31803 -1.61181,1.49073 z m 15.42284,2.8818 c -1.07285,-0.4867 -0.90566,-1.7707 0.25611,-1.9673 0.47528,-0.081 0.65875,-0.035 0.98564,0.2415 0.9682,0.8202 -0.0668,2.2587 -1.24175,1.7258 z m -3.07457,-0.033 c -0.82932,-0.3143 -0.9711,-1.1948 -0.27225,-1.6904 0.52918,-0.3754 1.06249,-0.3921 1.51386,-0.048 0.51602,0.3937 0.59613,0.9449 0.20281,1.3958 -0.42212,0.4841 -0.82144,0.5785 -1.44442,0.3425 z m -2.84171,0.1188 c -1.25219,-0.4077 -0.98492,-2.1162 0.33104,-2.1162 0.92337,0 1.53148,1.2804 0.86043,1.8116 -0.35455,0.281 -0.86412,0.4111 -1.19147,0.3046 z m -2.95813,-0.011 c -0.46207,-0.129 -0.98604,-0.6747 -0.98604,-1.0267 0,-0.4663 0.69991,-1.0789 1.23254,-1.0789 0.4979,0 1.23256,0.6022 1.23256,1.0105 0,0.6103 -0.88057,1.2622 -1.47906,1.0951 z m -3.23499,-0.034 c -0.74943,-0.2694 -0.94673,-1.2683 -0.34952,-1.7701 0.75085,-0.6306 1.94109,-0.1199 1.94109,0.8329 0,0.7077 -0.84532,1.2054 -1.59157,0.9372 z m -2.97069,0.034 c -0.20798,-0.03 -0.48086,-0.2427 -0.61977,-0.485 -0.67981,-1.1853 1.03327,-2.2676 1.88402,-1.1902 0.43219,0.5471 0.43116,0.9631 -0.003,1.3279 -0.39184,0.3292 -0.72918,0.4222 -1.26098,0.3473 z m 11.70364,2.4205 c -0.64731,-0.5837 -0.46095,-1.4376 0.37636,-1.7246 0.94766,-0.3248 1.96399,0.5992 1.50793,1.371 -0.46527,0.7875 -1.24158,0.9332 -1.88429,0.3536 z m -3.00186,0.061 c -0.52145,-0.438 -0.48605,-1.2166 0.0734,-1.6135 0.23813,-0.1689 0.56097,-0.3071 0.71737,-0.3071 0.54273,0 1.15039,0.5791 1.15039,1.0965 0,0.9504 -1.18947,1.4554 -1.94111,0.8241 z m -3.07876,-0.061 c -0.42277,-0.3811 -0.46357,-0.53 -0.29808,-1.0869 0.0995,-0.3354 0.8121,-0.7721 1.25942,-0.7721 0.40274,0 1.10038,0.7046 1.10038,1.1114 0,0.4755 -0.72309,1.1114 -1.26403,1.1114 -0.21687,0 -0.57583,-0.1638 -0.79769,-0.3638 z m -3.00419,0.02 c -1.0066,-0.9662 0.34908,-2.3964 1.49862,-1.5811 0.31836,0.2258 0.44412,0.4494 0.4423,0.7862 -0.002,0.554 -0.1169,0.7367 -0.60296,0.9674 -0.5435,0.2579 -0.94307,0.2065 -1.33796,-0.1725 z m -2.93144,0.1239 c -1.06729,-0.674 -0.0541,-2.4101 1.08559,-1.8601 0.91378,0.4411 1.08403,1.1236 0.42777,1.7153 -0.45783,0.4129 -1.00602,0.4655 -1.51336,0.1448 z m 8.98339,2.5898 c -0.71152,-0.6416 -0.23285,-1.778 0.74886,-1.778 1.11013,0 1.63163,1.0841 0.84289,1.7522 -0.47531,0.4026 -1.16151,0.4136 -1.59175,0.026 z m -3.11054,-0.094 c -0.4297,-0.4925 -0.4297,-0.801 0,-1.2935 0.24704,-0.2832 0.49207,-0.3904 0.89194,-0.3904 0.59059,0 1.23256,0.5402 1.23256,1.0373 0,0.4969 -0.64197,1.0371 -1.23256,1.0371 -0.39987,0 -0.6449,-0.1077 -0.89194,-0.3905 z m -2.96366,0.066 c -0.69742,-0.675 -0.19654,-1.7502 0.81531,-1.7502 0.63259,0 1.15037,0.4669 1.15037,1.0372 0,0.9265 -1.26942,1.3868 -1.96568,0.713 z m -3.05417,-0.039 c -0.49281,-0.4444 -0.51008,-0.8077 -0.0627,-1.3204 0.2427,-0.2783 0.4936,-0.3903 0.87288,-0.3903 1.10905,0 1.65163,1.0912 0.87128,1.7522 -0.50456,0.4274 -1.17982,0.4107 -1.68138,-0.042 z m 6.2956,2.9471 c -0.82259,-0.4025 -0.75938,-1.5077 0.10662,-1.8635 1.35621,-0.5572 2.37426,1.1616 1.09242,1.8444 -0.56393,0.3005 -0.62214,0.3014 -1.19904,0.018 z m -3.14349,-0.075 c -0.56602,-0.4014 -0.59036,-1.1379 -0.0526,-1.5934 0.49345,-0.4181 1.11454,-0.4098 1.56308,0.02 0.5268,0.5055 0.4745,1.1913 -0.11995,1.5733 -0.59919,0.3846 -0.84727,0.3845 -1.39044,0 z m -2.83093,0.166 c -0.48688,-0.1818 -0.78199,-0.889 -0.57551,-1.3785 0.30592,-0.7256 1.16397,-0.9061 1.88302,-0.396 1.05605,0.7491 -0.047,2.246 -1.30751,1.7745 z m -2.97353,-0.011 c -0.79352,-0.2882 -0.94993,-1.2885 -0.27616,-1.7663 0.54801,-0.3887 1.04934,-0.3903 1.50808,-0.012 0.52145,0.4381 0.48604,1.2167 -0.0734,1.6134 -0.47175,0.3345 -0.6175,0.3545 -1.15855,0.1579 z m 5.80446,2.5094 c -0.82915,-0.588 -0.36274,-1.8168 0.68963,-1.8168 1.1309,0 1.62118,1.1954 0.7451,1.8168 -0.23815,0.1689 -0.56095,0.3071 -0.71736,0.3071 -0.15639,0 -0.47923,-0.1382 -0.71737,-0.3071 z m -2.91766,0.158 c -0.14634,-0.077 -0.3567,-0.3375 -0.4675,-0.5787 -0.17067,-0.3716 -0.15694,-0.5064 0.0899,-0.8833 0.46621,-0.7116 1.30286,-0.7554 1.91182,-0.1002 0.37932,0.408 0.36343,0.8497 -0.0476,1.3207 -0.35453,0.4066 -0.98041,0.508 -1.48668,0.2412 z m -3.16296,-0.158 c -0.7694,-0.5457 -0.4333,-1.6323 0.57098,-1.846 1.04236,-0.2216 1.81516,1.2682 0.97568,1.8809 -0.48797,0.3563 -1.01169,0.3445 -1.54666,-0.035 z m 2.86573,2.5839 c -0.4473,-0.5125 -0.43003,-0.876 0.0628,-1.3203 0.51759,-0.4667 1.23069,-0.4754 1.70438,-0.019 0.46357,0.4448 0.45444,1.0048 -0.023,1.4092 -0.53821,0.4559 -1.31335,0.4256 -1.74415,-0.068 z m -2.94142,0.048 c -0.99237,-0.9524 0.37999,-2.2575 1.5782,-1.5008 0.46999,0.2969 0.50804,1.2369 0.0647,1.5986 -0.43636,0.3561 -1.21861,0.3095 -1.64291,-0.098 z m 3.31096,2.9823 c -1.33153,-0.5804 -0.33471,-2.48 1.01122,-1.927 0.90094,0.37 0.95521,1.4757 0.0922,1.8781 -0.55348,0.2582 -0.61692,0.261 -1.10339,0.049 z m -3.2649,-0.1877 c -1.06895,-0.9636 0.29278,-2.4109 1.53214,-1.6281 0.54722,0.3455 0.50982,1.2751 -0.0679,1.6849 -0.56864,0.4034 -0.97157,0.3877 -1.46436,-0.056 z m 3.10312,2.8123 c -1.10492,-0.698 -0.0454,-2.4042 1.1395,-1.8352 0.8548,0.4106 1.01082,1.1159 0.37386,1.6902 -0.45783,0.4128 -1.00602,0.4654 -1.51336,0.145 z m -3.14918,-0.1242 c -0.63489,-0.6092 -0.32846,-1.5336 0.59569,-1.7967 0.77915,-0.2219 1.62251,0.6639 1.3203,1.3868 -0.32807,0.7847 -1.3072,0.9942 -1.91599,0.4099 z m 6.05197,2.7139 c -0.69464,-0.6264 -0.1289,-1.7781 0.87339,-1.7781 0.96063,0 1.46092,1.155 0.77001,1.7781 -0.18259,0.1648 -0.54779,0.2963 -0.82169,0.2963 -0.27391,0 -0.6391,-0.1315 -0.82171,-0.2963 z m -3.11055,-0.094 c -0.4473,-0.5126 -0.43003,-0.876 0.0628,-1.3203 0.51759,-0.4668 1.23069,-0.4755 1.70438,-0.019 0.46357,0.4448 0.45444,1.0049 -0.023,1.4093 -0.53821,0.4558 -1.31335,0.4255 -1.74415,-0.069 z m -2.93907,0.088 c -1.04823,-0.8806 0.3919,-2.2895 1.57585,-1.5418 0.46999,0.297 0.50804,1.2367 0.0647,1.5986 -0.41132,0.3358 -1.20612,0.308 -1.64057,-0.058 z m -5.36298,-113.59057 c -33.21391,10e-6 -60.18202,26.96811 -60.18203,60.18201 0,33.21396 26.96812,60.17946 60.18203,60.17946 33.21391,0 60.17948,-26.9655 60.17948,-60.17946 0,-33.2139 -26.96559,-60.18201 -60.17948,-60.18201 z m 0,3.87019 c 31.12229,0 56.30929,25.18953 56.30929,56.31182 0,31.12236 -25.18699,56.30926 -56.30929,56.30926 -31.12231,0 -56.31184,-25.187 -56.31184,-56.30926 2e-5,-31.12229 25.18953,-56.3118 56.31184,-56.31182 z"
         style="fill:#0ecdd5;fill-opacity:1;stroke-width:0.15605086"
         id="path8718" />
    </g>
  </g>
</svg>
